<?xml version="1.0" encoding="utf-8"?>
<!-- Generator: Adobe Illustrator 26.2.1, SVG Export Plug-In . SVG Version: 6.00 Build 0)  -->
<svg version="1.1" id="Layer_1" xmlns="http://www.w3.org/2000/svg" xmlns:xlink="http://www.w3.org/1999/xlink" x="0px" y="0px"
	 viewBox="0 0 800 800" style="enable-background:new 0 0 800 800;" xml:space="preserve">
<style type="text/css">
	.st0{enable-background:new    ;}
	.st1{fill:none;stroke:#000000;stroke-width:12;stroke-linecap:round;stroke-miterlimit:10;}
	.st2{fill:none;stroke:#000000;stroke-width:6;stroke-linecap:round;stroke-miterlimit:10;}
</style>
<path d="M66.7,423.2c0-1,0.8-1.8,1.8-1.8c6.4,0,12.5-2.9,16.5-7.9l0.3-0.3h0l0.1-0.1l0.2-0.1h0.1l0.2-0.1h1l0.2,0.1h0.1l0.2,0.1
	l0.1,0.1l0.1,0.1c0,0.1,0.1,0.1,0.1,0.1c4,5,10.1,7.9,16.5,7.9s12.4-2.9,16.5-7.9h0l0.1-0.1l0.1-0.1l0.1-0.1l0.2-0.1h0.1l0.2-0.1
	h1.2l0.2,0.1l0.2,0.1l0.1,0.1l0.3,0.3c4,5,10.1,7.9,16.5,7.9c6.4,0,12.5-2.9,16.5-7.9l0.1-0.1l0.1-0.1l0.1-0.1l0.2-0.1h0.1l0.2-0.1
	h1.2l0.1,0.1l0.3,0.2l0.3,0.3c4,5,10.1,7.9,16.5,7.9c6.4,0,12.5-2.9,16.5-7.9l0.1-0.1c0.1,0,0.1-0.1,0.1-0.1h0.1
	c0-0.1,0.1-0.1,0.2-0.1l0.1-0.1l0.2-0.1h1l0.2,0.1l0.1,0.1l0.2,0.1h0.1l0.1,0.1l0.1,0.1h0c4,5,10.1,7.9,16.5,7.9s12.4-2.9,16.5-7.9
	h0l0.1-0.1l0.1-0.1l0.1-0.1l0.2-0.1h0.1l0.2-0.1h1.2l0.2,0.1l0.2,0.1l0.1,0.1l0.3,0.3c4,5,10.1,7.9,16.5,7.9c0.5,0,0.9,0.2,1.3,0.5
	c0.3,0.3,0.5,0.8,0.5,1.3c0,1-0.8,1.8-1.8,1.8c-6.8,0-13.2-2.8-17.9-7.7c-4.7,4.9-11.1,7.7-17.9,7.7s-13.2-2.8-17.9-7.7
	c-4.7,4.9-11.1,7.7-17.9,7.7c-6.7,0-13.2-2.8-17.9-7.7c-4.7,4.9-11.1,7.7-17.9,7.7c-6.7,0-13.2-2.8-17.9-7.7
	c-4.7,4.9-11.1,7.7-17.9,7.7s-13.2-2.8-17.9-7.7c-4.7,4.9-11.1,7.7-17.9,7.7C67.6,425,66.8,424.2,66.7,423.2L66.7,423.2L66.7,423.2z
	 M68.5,442.1c6.8,0,13.2-2.8,17.9-7.7c4.7,4.9,11.1,7.7,17.9,7.7s13.2-2.8,17.9-7.7c4.7,4.9,11.1,7.7,17.9,7.7
	c6.7,0,13.2-2.8,17.9-7.7c4.7,4.9,11.1,7.7,17.9,7.7c6.8,0,13.2-2.8,17.9-7.7c4.7,4.9,11.1,7.7,17.9,7.7s13.2-2.8,17.9-7.7
	c4.7,4.9,11.1,7.7,17.9,7.7c0.5,0,0.9-0.2,1.3-0.5s0.5-0.8,0.5-1.3c0-1-0.8-1.8-1.8-1.8c-6.4,0-12.5-2.9-16.5-7.9l-0.1-0.1l-0.1-0.1
	l-0.1-0.1l-0.2-0.1l-0.2-0.1L230,430h-1l-0.2,0.1l-0.1,0.1l-0.2,0.1h-0.1l-0.3,0.3h0c-4,5-10.1,7.9-16.5,7.9
	c-6.4,0-12.4-2.9-16.4-7.9h0l-0.1-0.1l-0.1-0.1l-0.1-0.1l-0.2-0.1h-0.1l-0.2-0.1h-1L193,430h-0.1l-0.2,0.1l-0.1,0.1l-0.3,0.3
	c-4,5-10.1,7.9-16.5,7.9c-6.4,0-12.5-2.9-16.5-7.9l-0.1-0.1l-0.1-0.1l-0.1-0.1l-0.4-0.2l-0.2-0.1h-1l-0.2,0.1l-0.1,0.1l-0.2,0.1
	c0,0-0.1,0-0.1,0l-0.1,0.1l-0.1,0.1c-4,5-10.1,7.9-16.5,7.9c-6.4,0-12.4-2.9-16.5-7.9l-0.1-0.1l-0.1-0.1l-0.1-0.1l-0.2-0.1l-0.2-0.1
	l-0.1-0.1h-1l-0.2,0.1l-0.1,0.1l-0.2,0.1h-0.1l-0.3,0.3h0c-4,5-10.1,7.9-16.5,7.9s-12.4-2.9-16.5-7.9l-0.1-0.1l-0.1-0.1
	c0,0,0,0-0.1-0.1l-0.4-0.2l-0.2-0.1h-1l-0.2,0.1l-0.1,0.1l-0.2,0.1c0,0-0.1,0-0.1,0h0l-0.1,0.1l-0.1,0.1c-4,5-10.1,8-16.5,8
	c-1,0-1.8,0.8-1.8,1.8C66.7,441.3,67.6,442.1,68.5,442.1L68.5,442.1L68.5,442.1z M68.5,459.3c6.8,0,13.2-2.8,17.9-7.7
	c4.7,4.9,11.1,7.7,17.9,7.7s13.2-2.8,17.9-7.7c4.7,4.9,11.1,7.7,17.9,7.7c6.7,0,13.2-2.8,17.9-7.7c4.7,4.9,11.1,7.7,17.9,7.7
	c6.8,0,13.2-2.8,17.9-7.7c4.7,4.9,11.1,7.7,17.9,7.7s13.2-2.8,17.9-7.7c4.7,4.9,11.1,7.7,17.9,7.7c1,0,1.8-0.8,1.8-1.8
	c0-0.5-0.2-0.9-0.5-1.3s-0.8-0.5-1.3-0.5c-6.4,0-12.5-2.9-16.5-7.9l-0.3-0.3l-0.1-0.1l-0.2-0.1l-0.2-0.1h-1.2l-0.2,0.1h-0.1
	l-0.2,0.1l-0.1,0.1l-0.1,0.1l-0.1,0.1h0c-4,5-10.1,7.9-16.5,7.9s-12.4-2.9-16.5-7.9h0l-0.1-0.1c-0.1,0-0.1-0.1-0.1-0.1h-0.1
	c0-0.1-0.1-0.1-0.2-0.1l-0.1-0.1l-0.2-0.1h-1l-0.1,0.1l-0.2,0.1l-0.2,0.1h-0.1c0,0.1-0.1,0.1-0.1,0.1l-0.1,0.1
	c-4,5-10.1,7.9-16.5,7.9c-6.4,0-12.5-2.9-16.5-7.9l-0.3-0.3l-0.3-0.2l-0.1-0.1h-1.2l-0.2,0.1h-0.1l-0.2,0.1c0,0-0.1,0-0.1,0.1
	l-0.1,0.1l-0.1,0.1c-4,5-10.1,7.9-16.5,7.9c-6.4,0-12.5-2.9-16.5-7.9c0,0-0.1-0.1-0.1-0.1l-0.1-0.1l-0.1-0.1l-0.2-0.1l-0.2-0.1h-1.2
	l-0.2,0.1h-0.1l-0.2,0.1l-0.1,0.1l-0.1,0.1l-0.1,0.1h0c-4,5-10.1,7.9-16.5,7.9s-12.4-2.9-16.5-7.9l-0.1-0.1l-0.1-0.1
	c0,0,0,0-0.1-0.1l-0.2-0.1h-0.1l-0.2-0.1h-1.2l-0.1,0.1l-0.2,0.1c0,0-0.1,0-0.1,0.1h0l-0.3,0.3c-4,5-10.1,7.9-16.5,7.9
	c-1,0-1.8,0.8-1.8,1.8C66.8,458.5,67.6,459.3,68.5,459.3L68.5,459.3L68.5,459.3z"/>
<g class="st0">
	<path d="M270.8,365.5c-3.1-2.1-4.6-5.5-4.6-10.2c0-0.9,0-1.5,0.1-2c0.1-0.9,0.6-1.3,1.4-1.3h11.5c0.8,0,1.2,0.5,1.2,1.4
		c0,3.2,1.6,4.8,4.7,4.8c1.8,0,3.2-0.3,4-0.9s1.3-1.5,1.3-2.8c0-1-0.3-1.8-0.9-2.5c-0.6-0.6-1.8-1.3-3.6-2.1l-10.9-4.7
		c-3-1.3-5.2-2.9-6.6-4.8c-1.4-2-2-4.6-2-7.8c0-4.6,1.5-8,4.6-10.2c3-2.2,7.8-3.3,14.4-3.3c6.8,0,11.7,1.1,14.9,3.4
		c3.1,2.3,4.7,5.8,4.7,10.6c0,0.9-0.5,1.3-1.4,1.3h-11.4c-0.8,0-1.2-0.5-1.2-1.5c-0.1-2.3-1.7-3.5-4.7-3.5c-1.5,0-2.6,0.3-3.4,0.8
		c-0.7,0.5-1.1,1.3-1.1,2.5c0,0.8,0.3,1.5,0.9,2.1s1.6,1.2,3.2,1.8l10.8,4.5c3.4,1.3,5.7,3,7.2,4.9c1.4,2,2.1,4.6,2.1,8
		c0,9.7-6.9,14.6-20.6,14.6C278.8,368.7,273.9,367.6,270.8,365.5z"/>
	<path d="M324.6,364c-3.6-3.2-5.5-8-5.5-14.4v-10.1c0-6.7,1.8-11.8,5.5-15.1c3.6-3.4,9.2-5.1,16.7-5.1c7.3,0,12.9,1.6,16.6,4.9
		c3.7,3.3,5.6,8.1,5.6,14.6v7.4c0,0.4-0.1,0.7-0.3,0.9c-0.2,0.3-0.6,0.4-1,0.4H334v2.8c0,2.4,0.6,4.2,1.8,5.5c1.2,1.2,3,1.8,5.6,1.8
		c2,0,3.6-0.3,4.8-1c1.2-0.7,1.8-1.6,1.8-2.9c0-0.8,0.4-1.1,1.3-1.1h12.1c0.9,0,1.3,0.4,1.3,1.2c0.1,5.1-1.6,8.9-5,11.3
		c-3.4,2.4-8.7,3.7-15.9,3.7C333.9,368.7,328.2,367.1,324.6,364z M348.7,339.1v-0.4c-0.1-2.9-0.6-5-1.8-6.3
		c-1.1-1.3-2.9-1.9-5.5-1.9c-2.7,0-4.6,0.6-5.7,1.9c-1.2,1.3-1.8,3.4-1.8,6.2v0.4H348.7z"/>
	<path d="M419.1,366.3c0,0.8-0.4,1.2-1.2,1.2h-10.8c-0.8,0-1.2-0.4-1.3-1.1l-0.6-3.4l-0.4-2.3c-2.6,2.6-5.1,4.6-7.5,5.9
		c-2.4,1.4-5.2,2-8.4,2c-3.9,0-6.9-1.2-9.1-3.5c-2.1-2.3-3.2-5.6-3.2-9.9c0-3.4,0.6-6,1.9-8.1c1.2-2,3.3-3.6,6.1-4.7
		c2.8-1.1,6.7-2,11.6-2.5l7.3-0.8v-3.5c0-2.1-0.4-3.5-1.2-4.4c-0.8-0.8-2.2-1.2-4.2-1.2c-3.8,0-5.5,1.5-5.2,4.5
		c0,0.4-0.1,0.7-0.3,0.9c-0.2,0.3-0.6,0.4-1,0.4H380c-0.8,0-1.3-0.5-1.4-1.4c-0.4-5,1.1-8.8,4.5-11.4c3.4-2.6,8.6-3.9,15.5-3.9
		c7,0,12.1,1.3,15.3,4c3.2,2.7,4.7,7.1,4.7,13.1v18.9c0,4.3,0.2,7.9,0.5,10.8V366.3z M399.1,356.6c1.4-0.7,2.8-1.9,4.4-3.6V347
		l-5,0.6c-2.7,0.3-4.6,0.9-5.7,1.7c-1.1,0.8-1.6,2.2-1.6,4.2c0,1.5,0.3,2.5,0.9,3.2c0.6,0.7,1.5,1,2.8,1
		C396.3,357.7,397.7,357.3,399.1,356.6z"/>
</g>
<g class="st0">
	<path d="M475,323.2c2.2,2.6,3.3,6.6,3.3,12v14.3c0,6.6-1.7,11.4-5.1,14.6s-8.7,4.7-16,4.7c-3,0-6-0.2-8.8-0.6s-4.5-0.6-5-0.7
		c-3.4-0.5-6.2-0.9-8.4-1v-62.3c0-0.4,0.1-0.7,0.4-0.9c0.3-0.3,0.6-0.4,0.9-0.4h12.5c0.4,0,0.7,0.1,0.9,0.4c0.3,0.3,0.4,0.6,0.4,0.9
		v21.1c4.5-3.9,9.3-5.9,14.5-5.9C469.4,319.3,472.8,320.6,475,323.2z M463.2,338.6c0-2.2-0.4-3.8-1.2-4.8c-0.8-1-2.1-1.5-3.8-1.5
		c-2.3,0-5,1.1-7.9,3.4v20.1c0.3,0.1,1.1,0.2,2.4,0.4c1.3,0.2,2.5,0.3,3.6,0.3c2.3,0,4.1-0.7,5.2-2.1s1.7-3.5,1.7-6.3V338.6z"/>
</g>
<g class="st0">
	<path d="M526.3,325c0,3.2-0.1,5.9-0.4,8.2c-0.1,0.5-0.2,0.9-0.4,1c-0.2,0.2-0.6,0.3-1.1,0.2c-1.3-0.2-2.5-0.3-3.4-0.3
		c-2.1,0-4.2,0.5-6.4,1.4c-2.2,0.9-4,2.4-5.7,4.3v26.5c0,0.4-0.1,0.7-0.4,0.9c-0.3,0.3-0.6,0.4-0.9,0.4H495c-0.4,0-0.7-0.1-0.9-0.4
		c-0.3-0.3-0.4-0.6-0.4-0.9v-33.7c0-3.4-0.2-7-0.5-10.8v-0.2c0-0.8,0.4-1.1,1.2-1.1h10.8c0.8,0,1.2,0.3,1.4,1c0.4,1.9,0.6,4,0.8,6.4
		c2-2.6,4.3-4.7,6.9-6.2c2.6-1.5,5.3-2.3,8-2.3c1.1,0,2.1,0.1,2.8,0.3c0.6,0.3,0.9,0.8,0.9,1.6L526.3,325z"/>
</g>
<g class="st0">
	<path d="M543.2,364c-3.6-3.2-5.5-8-5.5-14.4v-10.1c0-6.7,1.8-11.8,5.5-15.1c3.6-3.4,9.2-5.1,16.8-5.1c7.3,0,12.9,1.6,16.6,4.9
		c3.7,3.3,5.6,8.1,5.6,14.6v7.4c0,0.4-0.1,0.7-0.3,0.9c-0.2,0.3-0.6,0.4-1,0.4h-28.2v2.8c0,2.4,0.6,4.2,1.8,5.5
		c1.2,1.2,3,1.8,5.6,1.8c2,0,3.6-0.3,4.8-1c1.2-0.7,1.8-1.6,1.8-2.9c0-0.8,0.4-1.1,1.3-1.1h12.1c0.9,0,1.3,0.4,1.3,1.2
		c0.1,5.1-1.6,8.9-5,11.3c-3.4,2.4-8.7,3.7-15.9,3.7C552.5,368.7,546.8,367.1,543.2,364z M567.4,339.1v-0.4c-0.1-2.9-0.6-5-1.8-6.3
		c-1.1-1.3-2.9-1.9-5.5-1.9c-2.7,0-4.6,0.6-5.7,1.9c-1.2,1.3-1.8,3.4-1.8,6.2v0.4H567.4z"/>
</g>
<g class="st0">
	<path d="M602,364c-3.6-3.2-5.5-8-5.5-14.4v-10.1c0-6.7,1.8-11.8,5.5-15.1c3.6-3.4,9.2-5.1,16.8-5.1c7.3,0,12.9,1.6,16.6,4.9
		c3.7,3.3,5.6,8.1,5.6,14.6v7.4c0,0.4-0.1,0.7-0.3,0.9c-0.2,0.3-0.6,0.4-1,0.4h-28.2v2.8c0,2.4,0.6,4.2,1.8,5.5
		c1.2,1.2,3,1.8,5.6,1.8c2,0,3.6-0.3,4.8-1c1.2-0.7,1.8-1.6,1.8-2.9c0-0.8,0.4-1.1,1.3-1.1h12.1c0.9,0,1.3,0.4,1.3,1.2
		c0.1,5.1-1.6,8.9-5,11.3c-3.4,2.4-8.7,3.7-15.9,3.7C611.3,368.7,605.7,367.1,602,364z M626.2,339.1v-0.4c-0.1-2.9-0.6-5-1.8-6.3
		c-1.1-1.3-2.9-1.9-5.5-1.9c-2.7,0-4.6,0.6-5.7,1.9c-1.2,1.3-1.8,3.4-1.8,6.2v0.4H626.2z"/>
</g>
<g class="st0">
	<path d="M653,367.2c-0.2-0.3-0.3-0.6-0.3-0.9v-0.4c0-0.6,0.2-1.1,0.5-1.7l14.7-22.6c2.6-4,4.6-6.9,6.1-8.8v-0.2
		c-2.1,0.1-5.2,0.1-9.2,0.1h-8.2c-0.9,0-1.3-0.4-1.3-1.3v-9.7c0-0.8,0.4-1.2,1.3-1.2h38.3c0.4,0,0.8,0.1,1,0.3
		c0.3,0.2,0.4,0.5,0.4,0.9v0.5c0,0.6-0.4,1.5-1.1,2.7l-13.8,20.5c-1.1,1.8-3.4,5.1-6.6,9.7v0.2h9.7h8.5c0.9,0,1.3,0.4,1.3,1.3v9.8
		c0,0.4-0.1,0.7-0.3,0.9c-0.2,0.3-0.6,0.4-1,0.4h-39C653.5,367.6,653.2,367.4,653,367.2z"/>
</g>
<g class="st0">
	<path d="M713.3,364c-3.6-3.2-5.5-8-5.5-14.4v-10.1c0-6.7,1.8-11.8,5.5-15.1c3.6-3.4,9.2-5.1,16.8-5.1c7.3,0,12.9,1.6,16.6,4.9
		c3.7,3.3,5.6,8.1,5.6,14.6v7.4c0,0.4-0.1,0.7-0.3,0.9c-0.2,0.3-0.6,0.4-1,0.4h-28.2v2.8c0,2.4,0.6,4.2,1.8,5.5
		c1.2,1.2,3,1.8,5.6,1.8c2,0,3.6-0.3,4.8-1c1.2-0.7,1.8-1.6,1.8-2.9c0-0.8,0.4-1.1,1.3-1.1H750c0.9,0,1.3,0.4,1.3,1.2
		c0.1,5.1-1.6,8.9-5,11.3c-3.4,2.4-8.7,3.7-15.9,3.7C722.7,368.7,717,367.1,713.3,364z M737.5,339.1v-0.4c-0.1-2.9-0.6-5-1.8-6.3
		c-1.1-1.3-2.9-1.9-5.5-1.9c-2.7,0-4.6,0.6-5.7,1.9c-1.2,1.3-1.8,3.4-1.8,6.2v0.4H737.5z"/>
</g>
<g class="st0">
	<path d="M333.1,414.6c0.2,0.2,0.2,0.5,0,0.9l-14.4,46c-0.3,0.7-0.7,1-1.3,1h-10.8c-0.7,0-1.2-0.3-1.4-1l-2.5-8.3
		c-0.7-2.2-1.5-5.4-2.5-9.7l-0.8-3.2h-0.3c-0.8,3.3-2.1,7.5-3.6,12.7l-2.6,8.5c-0.2,0.7-0.6,1-1.3,1H281c-0.7,0-1.1-0.3-1.3-1
		l-14.4-46c-0.1-0.1-0.1-0.3-0.1-0.5c0-0.5,0.3-0.8,1-0.8h9.9c0.6,0,1,0.4,1.2,1.1l6.4,23.8c1.2,4.9,2.2,9.1,2.9,12.7h0.3l3.6-12.2
		l4.1-13.4l-2.5-9.6l-0.1-0.5c0-0.5,0.3-0.8,1-0.8h8.7c0.8,0,1.2,0.3,1.3,0.9l5.9,23.2l2.8,12.4h0.3c0.9-4.4,1.9-8.7,2.9-12.8
		l6.4-23.7c0.2-0.7,0.6-1.1,1.2-1.1h9.9C332.7,414.3,333,414.4,333.1,414.6z"/>
</g>
<g class="st0">
	<path d="M385.1,461.4c0,0.7-0.4,1.1-1.1,1.1h-8.1c-0.7,0-1.1-0.4-1.3-1.3c-0.3-1.5-0.6-3.6-0.9-6.2c-2.9,2.9-5.6,5.1-8.1,6.5
		c-2.5,1.4-5.4,2.1-8.4,2.1c-3.9,0-6.9-1.2-9-3.5c-2.1-2.4-3.1-5.7-3.1-10.1c0-3.4,0.7-6.2,2-8.3c1.3-2.1,3.4-3.8,6.4-4.9
		c2.9-1.2,6.9-2,12-2.5l7.6-0.7v-3.9c0-2.8-0.6-4.8-1.7-5.9c-1.1-1.1-3-1.7-5.8-1.7c-5,0-7.4,1.8-7.3,5.4c0,0.8-0.4,1.2-1.1,1.2
		h-8.8c-0.5,0-0.8-0.2-1-0.6c-0.2-0.4-0.3-1.2-0.3-2.3c0-4,1.7-7.2,5-9.4c3.3-2.2,8-3.3,13.9-3.3c6.3,0,11,1.4,14,4.1
		c3,2.7,4.5,7,4.5,12.8v20.4c0,4.2,0.2,7.8,0.6,10.9V461.4z M366.5,453c1.8-1,4-2.8,6.5-5.3v-7l-6.7,0.6c-3.8,0.3-6.4,1-7.8,2.2
		c-1.4,1.1-2.2,2.9-2.2,5.4c0,2,0.4,3.4,1.2,4.3c0.8,0.9,2,1.4,3.6,1.4C362.9,454.5,364.7,454,366.5,453z"/>
</g>
<g class="st0">
	<path d="M411.4,459.7c-2.4-2.6-3.5-6.9-3.5-12.8V424h-7.2c-0.8,0-1.2-0.4-1.2-1.2v-7.3c0-0.8,0.4-1.2,1.2-1.2h7.5l1.3-11.8
		c0.2-0.7,0.6-1.1,1.3-1.1h7.4c0.8,0,1.2,0.4,1.2,1.2v11.7h14.4c0.3,0,0.6,0.1,0.8,0.3c0.2,0.2,0.3,0.5,0.3,0.8v7.3
		c0,0.3-0.1,0.6-0.3,0.8c-0.2,0.2-0.5,0.3-0.8,0.3h-14.4v22.3c0,2.7,0.5,4.6,1.5,5.7c1,1.1,2.7,1.7,5.1,1.7c2.5,0,5-0.6,7.6-1.7
		c0.3-0.1,0.5-0.2,0.6-0.2c0.5,0,0.8,0.4,0.8,1.1v7.5c0,0.7-0.3,1.1-0.9,1.3c-3.2,1.2-6.8,1.9-10.9,1.9
		C417.7,463.6,413.7,462.3,411.4,459.7z"/>
</g>
<g class="st0">
	<path d="M455.3,459c-3.5-3.1-5.3-7.7-5.4-13.9V433c0-6.5,1.8-11.5,5.3-14.8c3.5-3.4,8.8-5,15.8-5c6.9,0,12.1,1.6,15.6,4.9
		c3.6,3.2,5.3,8,5.3,14.4v7.6c0,0.3-0.1,0.6-0.3,0.8c-0.2,0.2-0.5,0.3-0.8,0.3h-29.4v2.9c0,3.6,0.8,6.2,2.3,7.9
		c1.5,1.7,4,2.5,7.5,2.5c2.7,0,4.7-0.4,6.2-1.3c1.4-0.9,2.2-2.1,2.3-3.8c0-0.8,0.4-1.2,1.2-1.2h9c0.7,0,1,0.4,1.2,1.1
		c0.1,4.6-1.5,8.2-4.9,10.7c-3.4,2.5-8.4,3.7-15,3.7C464.1,463.6,458.8,462.1,455.3,459z M480.6,433.3v-0.5c-0.1-3.7-0.9-6.3-2.4-8
		c-1.5-1.7-3.9-2.5-7.1-2.5c-3.3,0-5.8,0.9-7.3,2.6c-1.6,1.7-2.4,4.4-2.4,8v0.4H480.6z"/>
	<path d="M539.5,424.7c-0.1,0.9-0.6,1.2-1.5,1c-0.9-0.2-2.1-0.3-3.4-0.3c-2.2,0-4.3,0.6-6.6,1.8c-2.2,1.2-4.2,2.8-6,4.8v29.3
		c0,0.3-0.1,0.6-0.3,0.8c-0.2,0.2-0.5,0.3-0.8,0.3h-9.3c-0.7,0-1.1-0.4-1.1-1.2v-35c0-4-0.2-7.6-0.7-10.8v-0.2
		c0-0.7,0.4-1.1,1.2-1.1h8.2c0.7,0,1.1,0.3,1.3,1c0.4,2.1,0.7,4.4,0.8,6.9c2-2.7,4.4-4.9,7.1-6.5c2.7-1.7,5.2-2.5,7.6-2.5
		c1.2,0,2.2,0.1,2.8,0.3c0.5,0.3,0.8,0.7,1,1.3C539.9,418,539.8,421.4,539.5,424.7z"/>
</g>
<g class="st0">
	<path d="M271.7,554.7c-3-2.5-4.5-6.5-4.3-11.9c0-0.7,0.4-1.1,1.2-1.1h8.8c0.7,0,1,0.4,1,1.1c0,2.4,0.6,4.1,1.8,5.2
		c1.2,1.1,3.1,1.7,5.7,1.7c5.3,0,7.9-1.7,7.9-5.2c0-1.2-0.4-2.3-1.2-3.2c-0.8-0.9-2.2-1.7-4.1-2.5l-11.2-4.7c-3.4-1.4-5.8-3-7.3-5
		s-2.2-4.5-2.2-7.7c0-4.5,1.5-7.9,4.4-10.1c2.9-2.2,7.4-3.3,13.4-3.3c6.1,0,10.8,1.2,14,3.5c3.2,2.4,4.8,5.8,4.8,10.3
		c0,0.7-0.4,1.1-1.2,1.1h-8.8c-0.8,0-1.2-0.5-1.2-1.6c0-1.4-0.6-2.6-1.9-3.4c-1.2-0.8-3-1.2-5.2-1.2c-4.4,0-6.7,1.6-6.7,4.7
		c0,1.2,0.3,2.2,1,2.8c0.7,0.6,2,1.4,4,2.2l11.2,4.7c3.5,1.4,6,3.2,7.5,5.1c1.5,2,2.3,4.6,2.3,7.8c0,4.8-1.7,8.4-4.9,10.8
		c-3.3,2.5-8.2,3.7-14.6,3.7C279.5,558.5,274.7,557.3,271.7,554.7z"/>
	<path d="M365.7,556.7c0,0.5-0.3,0.7-1,0.7h-10.9c-0.6,0-1-0.3-1.4-0.8l-12.6-20l-5.6,5.9v13.7c0,0.3-0.1,0.6-0.3,0.8
		c-0.2,0.2-0.5,0.3-0.8,0.3h-9.3c-0.7,0-1.1-0.4-1.1-1.2v-64.6c0-0.8,0.4-1.2,1.1-1.2h9.3c0.3,0,0.6,0.1,0.8,0.3
		c0.2,0.2,0.3,0.5,0.3,0.8v23.9c0,4.5-0.1,9-0.3,13.5h0.2c2.3-3,4.6-5.8,6.9-8.5l9.4-10.8c0.3-0.4,0.8-0.6,1.4-0.6h11.7
		c0.7,0,1.1,0.2,1.1,0.7c0,0.2-0.1,0.4-0.4,0.7l-16.3,17.9l17.6,27.5C365.7,556.2,365.7,556.4,365.7,556.7z"/>
	<path d="M381.6,500.3c-1.1-0.9-1.7-2.3-1.7-4.1v-2.5c0-1.8,0.6-3.2,1.7-4.2c1.1-0.9,2.7-1.4,4.8-1.4c2.1,0,3.7,0.5,4.9,1.4
		c1.1,0.9,1.7,2.3,1.7,4.2v2.5c0,1.8-0.6,3.1-1.7,4.1c-1.1,0.9-2.8,1.4-4.9,1.4C384.3,501.7,382.7,501.2,381.6,500.3z M380.6,556.2
		v-45.9c0-0.8,0.4-1.2,1.1-1.2h9.3c0.3,0,0.6,0.1,0.8,0.3c0.2,0.2,0.3,0.5,0.3,0.8v45.9c0,0.3-0.1,0.6-0.3,0.8
		c-0.2,0.2-0.5,0.3-0.8,0.3h-9.3C381,557.4,380.6,557,380.6,556.2z"/>
	<path d="M412,556.2v-64.6c0-0.8,0.4-1.2,1.1-1.2h9.3c0.3,0,0.6,0.1,0.8,0.3c0.2,0.2,0.3,0.5,0.3,0.8v64.6c0,0.3-0.1,0.6-0.3,0.8
		c-0.2,0.2-0.5,0.3-0.8,0.3h-9.3C412.3,557.4,412,557,412,556.2z"/>
	<path d="M443.3,556.2v-64.6c0-0.8,0.4-1.2,1.1-1.2h9.3c0.3,0,0.6,0.1,0.8,0.3c0.2,0.2,0.3,0.5,0.3,0.8v64.6c0,0.3-0.1,0.6-0.3,0.8
		c-0.2,0.2-0.5,0.3-0.8,0.3h-9.3C443.7,557.4,443.3,557,443.3,556.2z"/>
	<path d="M477.2,554.7c-3-2.5-4.5-6.5-4.3-11.9c0-0.7,0.4-1.1,1.2-1.1h8.8c0.7,0,1,0.4,1,1.1c0,2.4,0.6,4.1,1.8,5.2
		c1.2,1.1,3.1,1.7,5.7,1.7c5.3,0,7.9-1.7,7.9-5.2c0-1.2-0.4-2.3-1.2-3.2c-0.8-0.9-2.2-1.7-4.1-2.5l-11.2-4.7c-3.4-1.4-5.8-3-7.3-5
		s-2.2-4.5-2.2-7.7c0-4.5,1.5-7.9,4.4-10.1c2.9-2.2,7.4-3.3,13.4-3.3c6.1,0,10.8,1.2,14,3.5c3.2,2.4,4.8,5.8,4.8,10.3
		c0,0.7-0.4,1.1-1.2,1.1h-8.8c-0.8,0-1.2-0.5-1.2-1.6c0-1.4-0.6-2.6-1.9-3.4c-1.2-0.8-3-1.2-5.2-1.2c-4.4,0-6.7,1.6-6.7,4.7
		c0,1.2,0.3,2.2,1,2.8c0.7,0.6,2,1.4,4,2.2l11.2,4.7c3.5,1.4,6,3.2,7.5,5.1c1.5,2,2.3,4.6,2.3,7.8c0,4.8-1.7,8.4-4.9,10.8
		s-8.2,3.7-14.6,3.7C485,558.5,480.2,557.3,477.2,554.7z"/>
</g>
<g class="st0">
	<path d="M269.5,274.6l0.5-26.1c0-0.2,0.1-0.3,0.2-0.4c0.1-0.1,0.2-0.1,0.4-0.1h6c0.3,0,0.5,0.1,0.6,0.4l6.7,14.3l6.6-14.3
		c0.1-0.3,0.3-0.4,0.6-0.4h5.9c0.1,0,0.3,0,0.4,0.1c0.1,0.1,0.1,0.2,0.1,0.4l0.6,26.1c0,0.4-0.2,0.5-0.5,0.5h-4.7
		c-0.1,0-0.3,0-0.4-0.1c-0.1-0.1-0.2-0.2-0.2-0.4l-0.2-11.3c0-2,0-4.3,0.2-7H292c-1.1,2.6-2.1,4.8-3.1,6.8l-4.5,9.1
		c-0.1,0.2-0.3,0.3-0.6,0.3h-0.2c-0.3,0-0.5-0.1-0.6-0.3l-4.5-9.2c-0.7-1.4-1.7-3.6-3-6.7h-0.1c0.1,3,0.2,5.3,0.1,6.9l-0.2,11.4
		c0,0.4-0.2,0.5-0.5,0.5H270C269.6,275.2,269.5,275,269.5,274.6z"/>
	<path d="M307.6,273.5c-1.6-1.5-2.5-3.6-2.5-6.4v-4.4c0-2.8,0.8-4.9,2.5-6.4c1.6-1.5,4-2.2,7-2.2c1.9,0,3.6,0.3,5,1
		c1.4,0.6,2.4,1.5,3.1,2.6c0.7,1.1,1,2.4,0.9,3.8c0,0.5-0.2,0.8-0.5,0.8h-4.4c-0.1,0-0.3-0.1-0.4-0.2c-0.1-0.1-0.1-0.3-0.1-0.5
		c0-0.8-0.3-1.5-0.9-1.9c-0.6-0.5-1.4-0.7-2.5-0.7c-1.3,0-2.3,0.3-2.9,1c-0.6,0.7-0.9,1.7-0.9,3.2v3.3c0,1.5,0.3,2.5,0.9,3.2
		c0.6,0.7,1.6,1,2.8,1c1.1,0,1.9-0.2,2.5-0.7s0.9-1.1,0.9-1.9c0-0.2,0-0.3,0.1-0.5c0.1-0.1,0.2-0.2,0.4-0.2h4.4
		c0.4,0,0.5,0.2,0.5,0.5c0.1,2.3-0.6,4.2-2.1,5.5s-3.8,2.1-6.8,2.1C311.6,275.7,309.3,274.9,307.6,273.5z"/>
</g>
<g class="st0">
	<path d="M354.1,274.9c0,0.2-0.1,0.3-0.4,0.3h-5.9c-0.3,0-0.5-0.1-0.7-0.4l-6.8-11.1l-3.2,3.6v7.3c0,0.4-0.2,0.5-0.5,0.5h-4.8
		c-0.4,0-0.5-0.2-0.5-0.5v-26.1c0-0.4,0.2-0.5,0.5-0.5h4.8c0.4,0,0.5,0.2,0.5,0.5v6.5c0,1.8-0.1,3.5-0.2,4.9h0.1
		c0.9-1.4,2-2.9,3.3-4.6l5.8-7.1c0.1-0.2,0.3-0.3,0.6-0.3h6c0.3,0,0.5,0.1,0.5,0.3c0,0.1,0,0.2-0.1,0.3l-8.7,10.4l9.6,15.5
		C354.1,274.6,354.1,274.7,354.1,274.9z"/>
</g>
<g class="st0">
	<path d="M360.8,273.6c-1.5-1.4-2.3-3.4-2.4-6.1v-4.8c0-5.7,3.1-8.6,9.3-8.6c3.1,0,5.4,0.7,6.9,2.1c1.6,1.4,2.3,3.5,2.3,6.2v3.2
		c0,0.4-0.2,0.5-0.5,0.5h-12.3v1.2c0,1.3,0.3,2.3,0.9,2.9c0.6,0.6,1.5,0.9,2.8,0.9c1,0,1.8-0.2,2.3-0.5c0.6-0.3,0.9-0.8,0.9-1.4
		c0-0.4,0.2-0.5,0.5-0.5h4.5c0.4,0,0.5,0.2,0.5,0.5c0.1,4.2-2.8,6.3-8.8,6.3C364.7,275.7,362.3,275,360.8,273.6z M371.4,262.8v-0.2
		c0-1.4-0.3-2.4-0.9-3c-0.6-0.6-1.5-1-2.7-1c-1.3,0-2.2,0.3-2.8,1c-0.6,0.6-0.9,1.7-0.9,3v0.2H371.4z"/>
	<path d="M402.8,261v13.7c0,0.4-0.2,0.5-0.5,0.5h-4.7c-0.4,0-0.5-0.2-0.5-0.5v-12.5c0-1-0.2-1.8-0.6-2.3c-0.4-0.5-1.1-0.7-1.9-0.7
		c-0.7,0-1.5,0.2-2.2,0.6c-0.7,0.4-1.5,0.9-2.3,1.7v13.2c0,0.4-0.2,0.5-0.5,0.5h-4.7c-0.4,0-0.5-0.2-0.5-0.5v-14.7
		c0-1.9-0.1-3.4-0.2-4.6v-0.1c0-0.4,0.2-0.5,0.5-0.5h4.1c0.3,0,0.5,0.2,0.6,0.5c0.2,0.9,0.3,1.7,0.4,2.5c1.1-1.1,2.3-2,3.4-2.6
		c1.1-0.6,2.4-0.9,3.8-0.9C400.9,254.2,402.8,256.4,402.8,261z"/>
	<path d="M429.2,261v13.7c0,0.4-0.2,0.5-0.5,0.5h-4.7c-0.4,0-0.5-0.2-0.5-0.5v-12.5c0-1-0.2-1.8-0.6-2.3c-0.4-0.5-1.1-0.7-1.9-0.7
		c-0.7,0-1.5,0.2-2.2,0.6c-0.7,0.4-1.5,0.9-2.3,1.7v13.2c0,0.4-0.2,0.5-0.5,0.5h-4.7c-0.4,0-0.5-0.2-0.5-0.5v-14.7
		c0-1.9-0.1-3.4-0.2-4.6v-0.1c0-0.4,0.2-0.5,0.5-0.5h4.1c0.3,0,0.5,0.2,0.6,0.5c0.2,0.9,0.3,1.7,0.4,2.5c1.1-1.1,2.3-2,3.4-2.6
		c1.1-0.6,2.4-0.9,3.8-0.9C427.2,254.2,429.2,256.4,429.2,261z"/>
</g>
<g class="st0">
	<path d="M453.7,274.7c0,0.3-0.2,0.5-0.5,0.5h-4.1c-0.3,0-0.5-0.2-0.6-0.5c-0.1-0.9-0.3-1.8-0.4-2.5c-1.2,1.2-2.3,2.1-3.4,2.7
		c-1.1,0.6-2.3,0.9-3.6,0.9c-1.7,0-3-0.5-3.9-1.5c-0.9-1-1.3-2.4-1.3-4.3c0-1.4,0.3-2.6,0.8-3.5s1.4-1.6,2.7-2.1s2.9-0.8,5-1
		l3.2-0.3v-1.6c0-1-0.2-1.8-0.6-2.2c-0.4-0.4-1.1-0.6-2.1-0.6c-1.9,0-2.8,0.7-2.7,2.1c0,0.4-0.2,0.5-0.5,0.5h-4.4
		c-0.4,0-0.6-0.2-0.6-0.7c-0.2-2,0.5-3.6,1.9-4.7c1.5-1.1,3.6-1.6,6.4-1.6c2.9,0,5,0.6,6.3,1.8c1.3,1.2,2,3,2,5.6v8.4
		C453.4,271.6,453.5,273.2,453.7,274.7L453.7,274.7z M445.3,270.8c0.7-0.4,1.5-1,2.3-1.9v-2.9l-2.5,0.2c-1.4,0.1-2.4,0.4-2.9,0.8
		c-0.5,0.4-0.8,1.1-0.8,2.1c0,0.7,0.1,1.2,0.4,1.6s0.8,0.5,1.4,0.5C444,271.3,444.7,271.1,445.3,270.8z"/>
</g>
<g class="st0">
	<path d="M462.9,248.2c0.1-0.1,0.2-0.1,0.4-0.1h5.6c0.2,0,0.3,0.1,0.4,0.2c0.1,0.1,0.1,0.3,0.1,0.5l-3.7,11.6
		c-0.1,0.3-0.3,0.5-0.5,0.5h-4.1c-0.2,0-0.3-0.1-0.4-0.2c-0.1-0.1-0.1-0.3-0.1-0.5l2.2-11.6C462.8,248.4,462.8,248.3,462.9,248.2z"
		/>
</g>
<g class="st0">
	<path d="M475.6,274.1c-1.3-1.1-1.9-2.8-1.8-5.1c0.1-0.3,0.2-0.5,0.5-0.5h4.4c0.3,0,0.5,0.2,0.5,0.5c0,0.9,0.2,1.5,0.6,1.9
		s1.1,0.6,2,0.6c1,0,1.7-0.2,2.1-0.5c0.5-0.3,0.7-0.8,0.7-1.4c0-0.5-0.2-0.9-0.5-1.2c-0.3-0.3-0.8-0.6-1.6-1l-4.8-2
		c-1.4-0.6-2.4-1.3-3-2.1s-0.9-1.9-0.9-3.3c0-2,0.6-3.5,1.9-4.4c1.3-1,3.3-1.4,6-1.4c2.8,0,4.9,0.5,6.2,1.5c1.3,1,2,2.5,2,4.5
		c0,0.4-0.2,0.5-0.5,0.5h-4.3c-0.4,0-0.5-0.2-0.5-0.7c0-0.6-0.2-1-0.7-1.3c-0.4-0.3-1.1-0.5-1.9-0.5c-0.8,0-1.4,0.1-1.8,0.4
		c-0.4,0.3-0.6,0.7-0.6,1.3c0,0.4,0.1,0.8,0.4,1c0.3,0.3,0.8,0.5,1.6,0.8l4.7,2c1.5,0.6,2.5,1.3,3.1,2.2c0.6,0.8,1,2,1,3.4
		c0,2-0.7,3.6-2.2,4.7s-3.6,1.6-6.4,1.6C479,275.7,476.9,275.1,475.6,274.1z"/>
</g>
<path d="M225.4,480.3c0,0,0,4.1,0.1,6.9c0,3,0.3,7.6-2.6,12.7c-2.9,5-5.4,15.4-6.8,33.1c-1.4,17.7,2.5,24.1,3.6,25.2
	c1.1,1.1,3.7,1.5,9.4,1.5c5.7,0,8.4-0.6,9.5-1.7c1.1-1.1,4.9-7.6,3.3-25.3c-1.7-17.5-4.3-28-7.3-32.9c-3-4.9-2.8-9.7-2.8-12.6
	c0-3-0.1-6.9-0.1-6.9l-0.4-152c0,0,0-4.1-0.1-6.9c0-3-0.3-7.6,2.6-12.7c2.9-5,5.4-15.4,6.8-33.1s-2.4-24.2-3.6-25.2
	c-1.1-1.1-3.7-1.5-9.4-1.5c-5.7,0-8.4,0.6-9.5,1.7s-4.9,7.6-3.3,25.3c1.7,17.5,4.3,28,7.3,32.9c3,4.9,2.8,9.7,2.8,12.6
	c0,3,0.1,6.9,0.1,6.9L225.4,480.3L225.4,480.3z"/>
<path class="st1" d="M107.7,373.3c1-10.1,2.6-20.1,4.6-29.8s4.5-19.4,7.4-28.8c2.9-9.4,6.3-18.6,10.1-27.6c3.8-9,8-17.8,12.7-26.3
	c4.6-8.5,9.7-16.8,15.1-24.8s11.2-15.7,17.3-23.1s12.6-14.5,19.4-21.3s13.9-13.3,21.3-19.4c7.4-6.1,15.1-11.9,23.1-17.3
	s16.3-10.4,24.8-15.1s17.3-8.9,26.3-12.7s18.2-7.2,27.6-10.1s19-5.4,28.8-7.4c9.8-2,19.7-3.5,29.8-4.6s20.4-1.6,30.7-1.6
	s20.6,0.5,30.7,1.6c10.1,1,20.1,2.6,29.8,4.6s19.4,4.5,28.8,7.4c9.4,2.9,18.6,6.3,27.6,10.1c9,3.8,17.8,8,26.3,12.7
	c8.5,4.6,16.8,9.7,24.8,15.1c8,5.4,15.7,11.2,23.1,17.3s14.5,12.6,21.3,19.4c6.8,6.8,13.3,13.9,19.4,21.3s11.9,15.1,17.3,23.1
	s10.4,16.3,15.1,24.8c4.6,8.5,8.9,17.3,12.7,26.3"/>
<path class="st1" d="M707.1,404c0,10.4-0.5,20.6-1.6,30.7s-2.6,20.1-4.6,29.8s-4.5,19.4-7.4,28.8s-6.3,18.6-10.1,27.6
	s-8,17.8-12.7,26.3c-4.6,8.5-9.7,16.8-15.1,24.8c-5.4,8-11.2,15.7-17.3,23.1s-12.6,14.5-19.4,21.3s-13.9,13.3-21.3,19.4
	s-15.1,11.9-23.1,17.3c-8,5.4-16.3,10.4-24.8,15.1s-17.3,8.9-26.3,12.7S505.4,688,496,691s-19,5.4-28.8,7.4s-19.7,3.5-29.8,4.6
	s-20.4,1.6-30.7,1.6s-20.6-0.5-30.7-1.6s-20.1-2.6-29.8-4.6s-19.4-4.5-28.8-7.4c-9.4-2.9-18.6-6.3-27.6-10.1s-17.8-8-26.3-12.7
	s-16.8-9.7-24.8-15.1s-15.7-11.2-23.1-17.3s-14.5-12.6-21.3-19.4c-6.8-6.8-13.3-13.9-19.4-21.3c-6.1-7.4-11.9-15.1-17.3-23.1
	c-5.4-8-10.4-16.3-15.1-24.8c-4.6-8.5-8.9-17.3-12.7-26.3c-3.8-9-7.2-18.2-10.1-27.6"/>
<path class="st2" d="M131.5,375.3c0.9-9.3,2.4-18.5,4.2-27.5c1.8-9,4.1-17.9,6.8-26.5s5.8-17.2,9.3-25.4c3.5-8.3,7.4-16.4,11.7-24.2
	s8.9-15.5,13.9-22.8c5-7.4,10.3-14.5,15.9-21.3c5.6-6.8,11.6-13.4,17.9-19.7c6.3-6.3,12.8-12.2,19.7-17.9c6.8-5.6,14-11,21.3-15.9
	c7.4-5,15-9.6,22.8-13.9c7.8-4.3,15.9-8.2,24.2-11.7c8.3-3.5,16.8-6.6,25.4-9.3s17.5-5,26.5-6.8c9-1.8,18.2-3.3,27.5-4.2
	c9.3-0.9,18.8-1.4,28.3-1.4s19,0.5,28.3,1.4c9.3,0.9,18.5,2.4,27.5,4.2c9,1.8,17.9,4.1,26.5,6.8s17.2,5.8,25.4,9.3
	c8.3,3.5,16.4,7.4,24.2,11.7c7.8,4.3,15.5,8.9,22.8,13.9c7.4,5,14.5,10.3,21.3,15.9s13.4,11.6,19.7,17.9
	c6.3,6.3,12.2,12.8,17.9,19.7c5.6,6.8,11,14,15.9,21.3c5,7.4,9.6,15,13.9,22.8s8.2,15.9,11.7,24.2"/>
<path class="st2" d="M683.9,403.6c0,9.6-0.5,19-1.4,28.3s-2.4,18.5-4.2,27.5c-1.8,9-4.1,17.9-6.8,26.5c-2.7,8.7-5.8,17.2-9.3,25.4
	c-3.5,8.3-7.4,16.4-11.7,24.2c-4.3,7.8-8.9,15.5-13.9,22.8s-10.3,14.5-15.9,21.3s-11.6,13.4-17.9,19.7c-6.3,6.3-12.8,12.2-19.7,17.9
	c-6.8,5.6-14,11-21.3,15.9s-15,9.6-22.8,13.9s-15.9,8.2-24.2,11.7c-8.3,3.5-16.8,6.6-25.4,9.3s-17.5,5-26.5,6.8s-18.2,3.3-27.5,4.2
	s-18.8,1.4-28.3,1.4s-19-0.5-28.3-1.4s-18.5-2.4-27.5-4.2c-9-1.8-17.9-4.1-26.5-6.8c-8.7-2.7-17.2-5.8-25.4-9.3
	c-8.3-3.5-16.4-7.4-24.2-11.7s-15.5-8.9-22.8-13.9c-7.4-5-14.5-10.3-21.3-15.9c-6.8-5.6-13.4-11.6-19.7-17.9
	c-6.3-6.3-12.2-12.8-17.9-19.7c-5.6-6.8-11-14-15.9-21.3c-5-7.4-9.6-15-13.9-22.8s-8.2-15.9-11.7-24.2c-3.5-8.3-6.6-16.8-9.3-25.4"
	/>
</svg>
