<?xml version="1.0" encoding="UTF-8"?>
<svg id="Layer_1" data-name="Layer 1" xmlns="http://www.w3.org/2000/svg" width="800" height="800" viewBox="0 0 800 800">
  <defs>
    <style>
      .cls-1 {
        stroke-width: 12px;
      }

      .cls-1, .cls-2 {
        fill: none;
        stroke: #000;
        stroke-linecap: round;
        stroke-miterlimit: 10;
      }

      .cls-2 {
        stroke-width: 6px;
      }

      .cls-3 {
        letter-spacing: .05001em;
      }

      .cls-4 {
        font-family: SofiaSans-Black, SofiaSans;
        font-size: 94.89732px;
      }

      .cls-5 {
        font-family: SofiaSans-ExtraBold, SofiaSans;
        font-size: 41.43502px;
      }

      .cls-6 {
        letter-spacing: .07501em;
      }

      .cls-7 {
        letter-spacing: .07501em;
      }

      .cls-8 {
        letter-spacing: .075em;
      }

      .cls-9, .cls-10 {
        letter-spacing: .075em;
      }

      .cls-11 {
        letter-spacing: .075em;
      }

      .cls-12 {
        letter-spacing: .075em;
      }

      .cls-13 {
        letter-spacing: .073em;
      }

      .cls-10, .cls-14 {
        font-family: SofiaSans-Bold, SofiaSans;
        font-size: 98px;
      }

      .cls-15 {
        letter-spacing: .06901em;
      }

      .cls-16 {
        letter-spacing: .06801em;
      }

      .cls-17 {
        letter-spacing: .09199em;
      }

      .cls-18 {
        letter-spacing: .05901em;
      }

      .cls-19 {
        letter-spacing: .07599em;
      }

      .cls-20 {
        letter-spacing: .019em;
      }

      .cls-21 {
        letter-spacing: .077em;
      }
    </style>
  </defs>
  <path d="M66.74034,423.1648c0-1.00405,.81002-1.81893,1.80809-1.81893,6.40781,.00728,12.46864-2.91031,16.4897-7.93056l.25313-.25465h.03616l.07232-.07276,.21698-.14552h.14465l.18081-.07276h1.01254l.18081,.07276h.14465l.21698,.14552,.07233,.07276,.14465,.10914c.03616,.07276,.10849,.10914,.14465,.14552,4.0068,5.01299,10.06023,7.9233,16.45359,7.9233s12.44698-2.91031,16.45359-7.9233h.03616l.10849-.14552,.14465-.10914,.07232-.07276,.21697-.14552h.14465l.18081-.07276h1.19334l.18081,.07276,.18081,.14552,.10849,.07276,.25314,.25465c4.01402,5.01299,10.07467,7.93056,16.47526,7.93056,6.39336,0,12.4542-2.91757,16.46803-7.93056l.14465-.14552,.14465-.10914,.07232-.07276,.21698-.14552h.14465l.18081-.07276h1.19334l.14465,.07276,.32546,.21828,.25313,.25465c4.01402,5.01299,10.07467,7.93056,16.47525,7.93056,6.39336,0,12.4542-2.91757,16.46803-7.93056l.10849-.14552c.06509-.0291,.11572-.08003,.14465-.14552h.10849c.04339-.06548,.10849-.11641,.18081-.14552l.14465-.07276,.18081-.07276h1.04869l.18081,.07276,.14465,.07276,.21697,.14552h.07232l.14465,.14552,.10849,.14552h.03616c4.0068,5.01299,10.06023,7.9233,16.45358,7.9233s12.44698-2.91031,16.4536-7.9233h.03616l.10849-.14552,.14465-.10914,.07232-.07276,.21697-.14552h.14465l.18081-.07276h1.19334l.18081,.07276,.18081,.14552,.10849,.07276,.25313,.25465c4.02124,5.02026,10.08189,7.93783,16.4897,7.93056,.47734,0,.94021,.18916,1.28013,.53114,.33992,.34195,.52796,.8076,.52796,1.28782-.0217,.99679-.81726,1.79711-1.80809,1.81893-6.75496,.00728-13.22072-2.76484-17.90016-7.67595-4.66482,4.90385-11.11613,7.67595-17.86387,7.67595s-13.19905-2.7721-17.86387-7.67595c-4.67204,4.90385-11.13057,7.67595-17.88572,7.67595-6.74774,0-13.20627-2.7721-17.87831-7.67595-4.67204,4.90385-11.13057,7.67595-17.88571,7.67595-6.74774,0-13.20627-2.7721-17.87831-7.67595-4.66482,4.90385-11.11613,7.67595-17.86387,7.67595s-13.19905-2.7721-17.86387-7.67595c-4.67926,4.91111-11.14501,7.68321-17.90016,7.67595-.99084-.02183-1.78639-.82217-1.80809-1.81893l.00035-.00003Zm1.80809,18.95134c6.76218,.02183,13.23515-2.75031,17.90016-7.67595,4.66482,4.90385,11.11613,7.67595,17.86387,7.67595s13.19905-2.7721,17.86387-7.67595c4.67204,4.90385,11.13057,7.67595,17.88571,7.67595,6.74774,0,13.20627-2.7721,17.87831-7.67595,4.67204,4.90385,11.13057,7.67595,17.87831,7.67595,6.75496,0,13.2135-2.7721,17.88572-7.67595,4.66482,4.90385,11.11613,7.67595,17.86387,7.67595s13.19905-2.7721,17.86387-7.67595c4.66482,4.92564,11.1378,7.69774,17.90016,7.67595,.47734,0,.94021-.18916,1.28013-.53114s.52796-.8076,.52796-1.28782c-.0217-.99679-.81726-1.79711-1.80809-1.81893-6.40059,.02183-12.46864-2.88125-16.48969-7.89424l-.14465-.10914-.10849-.14552-.10849-.07276-.18081-.10914-.18081-.07276-.14465-.07276h-1.04869l-.18081,.07276-.14465,.07276-.21697,.14552h-.07232l-.25313,.25465h-.03616c-4.02124,4.99847-10.07467,7.89424-16.46082,7.88698-6.39337-.00728-12.43235-2.91757-16.44637-7.9233h-.03616l-.10849-.14552-.14465-.10914-.10849-.07276-.18081-.14552h-.14465l-.18081-.07276h-1.04869l-.18081,.07276h-.14465l-.18081,.14552-.10849,.07276-.25313,.25465c-4.02124,5.00573-10.06745,7.91603-16.46082,7.9233-6.40059,.00728-12.4542-2.88852-16.48247-7.88697l-.14465-.10914-.10849-.14552-.10849-.07276-.36161-.18189-.18081-.07276h-1.01254l-.18081,.07276-.14465,.07276-.21698,.14552c-.03616,0-.07232,0-.07232,.03638l-.14465,.14552-.14465,.10914c-4.02846,4.9912-10.08189,7.88697-16.46803,7.88697-6.39336,0-12.44698-2.89578-16.47525-7.88697l-.14464-.10914-.10849-.14552-.10849-.07276-.18081-.10914-.18081-.07276-.14465-.07276h-1.0487l-.18081,.07276-.14465,.07276-.21697,.14552h-.07232l-.25314,.25465h-.03616c-4.02124,4.98394-10.06745,7.88697-16.45359,7.88697s-12.43235-2.90305-16.45359-7.88697l-.14465-.10914-.14465-.14552c0-.03638-.03616-.03638-.07233-.07276l-.36161-.18189-.18081-.07276h-1.01254l-.18081,.07276-.14465,.07276-.21698,.14552c-.03616,0-.07232,0-.07232,.03638h-.03616l-.10849,.14552-.14465,.10914c-4.0068,5.03478-10.07467,7.96688-16.4897,7.96688-.99084,.02183-1.78639,.82217-1.80809,1.81893,0,1.00405,.81002,1.81893,1.80809,1.81893l-.00037,.00013Zm0,17.16883c6.75496,.00728,13.22071-2.76483,17.90016-7.67595,4.66482,4.90384,11.11613,7.67595,17.86387,7.67595s13.19905-2.7721,17.86387-7.67595c4.67204,4.90384,11.13057,7.67595,17.88571,7.67595,6.74774,0,13.20627-2.7721,17.87831-7.67595,4.67204,4.90384,11.13057,7.67595,17.87831,7.67595,6.75496,0,13.2135-2.7721,17.88572-7.67595,4.66482,4.90384,11.11613,7.67595,17.86387,7.67595s13.19905-2.7721,17.86387-7.67595c4.67925,4.91111,11.14502,7.68321,17.90016,7.67595,.99083-.02183,1.78639-.82216,1.80809-1.81894,0-.4802-.18804-.94585-.52796-1.28781s-.80279-.53114-1.28013-.53114c-6.4078,.00728-12.46864-2.91031-16.48969-7.93056l-.25313-.25465-.10849-.07276-.18081-.14552-.18081-.07276h-1.19334l-.18081,.07276h-.14465l-.21697,.14552-.07232,.07276-.14465,.10914-.10849,.14552h-.03616c-4.0068,5.01299-10.06023,7.9233-16.4536,7.9233s-12.44698-2.91031-16.4536-7.9233h-.03616l-.10849-.14552c-.07232-.03638-.10849-.10914-.14465-.14552h-.10849c-.04339-.06548-.10849-.11641-.18081-.14552l-.14465-.07276-.18081-.07276h-1.04869l-.14465,.07276-.18081,.07276-.18081,.14552h-.10849c-.02893,.06548-.07956,.11641-.14465,.14552l-.10849,.14552c-4.01402,5.01299-10.07467,7.93056-16.47525,7.93056-6.39336,0-12.4542-2.91757-16.46803-7.93056l-.25313-.25465-.32546-.21828-.14465-.07276h-1.19334l-.18081,.07276h-.14465l-.21698,.14552c-.03616,.03638-.07232,.03638-.07232,.07276l-.14465,.10914-.14465,.14552c-4.01402,5.01299-10.07467,7.93056-16.47525,7.93056-6.39336,0-12.4542-2.91757-16.46803-7.93056-.03616-.03638-.07232-.10914-.14464-.14552l-.10849-.10914-.10849-.07276-.18081-.14552-.18081-.07276h-1.19334l-.18081,.07276h-.14465l-.21697,.14552-.07232,.07276-.14465,.10914-.10849,.14552h-.03616c-4.0068,5.01299-10.06023,7.9233-16.45359,7.9233s-12.44698-2.91031-16.45359-7.9233l-.14465-.14552-.14465-.10914c0-.03638-.03616-.03638-.07233-.07276l-.21698-.14552h-.14465l-.18081-.07276h-1.19334l-.14465,.07276-.21698,.14552c-.03616,.03638-.07232,.03638-.07232,.07276h-.03616l-.25313,.25465c-4.02124,5.02026-10.08189,7.93783-16.4897,7.93056-.99806,0-1.80809,.81489-1.80809,1.81894,.0217,.99678,.81726,1.79711,1.80809,1.81894h-.00037Z"/>
  <text transform="translate(262.92432 367.57422)"><tspan class="cls-4"><tspan class="cls-12" x="0" y="0">sea</tspan><tspan class="cls-13" x="167.4917" y="0">b</tspan><tspan class="cls-19" x="226.13818" y="0">r</tspan><tspan class="cls-21" x="271.2124" y="0">e</tspan><tspan class="cls-11" x="330.04834" y="0">e</tspan><tspan class="cls-15" x="388.69482" y="0">z</tspan><tspan class="cls-11" x="441.36279" y="0">e </tspan></tspan><tspan class="cls-14"><tspan class="cls-18" x="0" y="94.89746">w</tspan><tspan class="cls-7" x="78.40039" y="94.89746">a</tspan><tspan class="cls-16" x="135.14258" y="94.89746">t</tspan><tspan class="cls-9" x="181.98633" y="94.89746">er </tspan></tspan><tspan class="cls-10"><tspan x="0" y="189.79492">skills</tspan></tspan></text>
  <text class="cls-5" transform="translate(267.26465 275.16992)"><tspan class="cls-8" x="0" y="0">Mc</tspan><tspan class="cls-3" x="61.24023" y="0">K</tspan><tspan class="cls-8" x="89.3335" y="0">enn</tspan><tspan class="cls-17" x="167.31348" y="0">a</tspan><tspan class="cls-20" x="192.29785" y="0">’</tspan><tspan class="cls-6" x="204.85254" y="0">s</tspan></text>
  <path d="M225.42769,480.29073s-.01116,4.0809,.11923,6.93934c-.00819,2.99702,.25016,7.61369-2.62242,12.65899-2.86715,5.03981-5.35047,15.38703-6.75967,33.07523-1.4092,17.68819,2.52202,24.0692,3.60892,25.15609,1.0869,1.0869,3.66762,1.48306,9.37982,1.47285,5.71763-.01563,8.43429-.57044,9.52659-1.66275,1.09228-1.09228,4.9201-7.63327,3.33172-25.31273-1.7215-17.54634-4.27475-28.00654-7.25919-32.89843-2.97817-4.88567-2.83241-9.65251-2.81879-12.64411,.00819-2.99702-.11924-6.93935-.11924-6.93935l-.39647-152.03552s.01116-4.08091-.11924-6.93935c.00819-2.99702-.25015-7.6137,2.62243-12.65898,2.86715-5.03981,5.35047-15.38703,6.75966-33.07523,1.40919-17.6882-2.38344-24.20779-3.60892-25.1561-1.08633-1.08633-3.66762-1.48306-9.37982-1.47286-5.71763,.01563-8.43428,.57044-9.5266,1.66275s-4.9201,7.63327-3.33172,25.31273c1.72151,17.54633,4.27474,28.00654,7.25919,32.89842,2.97817,4.88567,2.83241,9.65251,2.81878,12.64411-.00819,2.99702,.11924,6.93935,.11924,6.93935l.3965,152.03553Z"/>
  <path class="cls-1" d="M107.68939,373.2681c1.02588-10.10165,2.55211-20.05538,4.55352-29.83602,2.00141-9.78064,4.478-19.38819,7.40459-28.79747,2.92659-9.40928,6.30319-18.6203,10.10461-27.60788,3.80143-8.98758,8.02768-17.75172,12.6536-26.26725,4.62591-8.51553,9.65148-16.78244,15.05153-24.77557,5.40005-7.99313,11.17459-15.71247,17.29843-23.13285,6.12384-7.42038,12.59699-14.5418,19.39428-21.33909s13.91871-13.27044,21.33909-19.39428c7.42038-6.12384,15.13972-11.89838,23.13285-17.29843,7.99313-5.40005,16.26004-10.42562,24.77557-15.05153,8.51553-4.62591,17.27967-8.85217,26.26725-12.6536,8.98758-3.80143,18.1986-7.17802,27.60788-10.10461,9.40928-2.92659,19.01683-5.40318,28.79747-7.40459,9.78064-2.00141,19.73437-3.52764,29.83602-4.55352,10.10165-1.02588,20.35121-1.5514,30.72352-1.5514s20.62187,.52553,30.72352,1.5514c10.10165,1.02588,20.05538,2.55211,29.83602,4.55352,9.78064,2.00141,19.38819,4.478,28.79747,7.40459,9.40928,2.92659,18.6203,6.30319,27.60788,10.10461,8.98758,3.80143,17.75172,8.02768,26.26725,12.6536,8.51553,4.62591,16.78244,9.65148,24.77557,15.05153,7.99313,5.40005,15.71247,11.17459,23.13285,17.29843,7.42038,6.12384,14.5418,12.59699,21.33909,19.39428,6.79729,6.79729,13.27044,13.91871,19.39428,21.33909,6.12384,7.42038,11.89838,15.13972,17.29843,23.13285,5.40005,7.99313,10.42562,16.26004,15.05153,24.77557,4.62591,8.51553,8.85217,17.27967,12.6536,26.26725"/>
  <path class="cls-1" d="M707.12123,403.99163c0,10.37231-.52553,20.62187-1.5514,30.72352-1.02588,10.10165-2.55211,20.05538-4.55352,29.83602-2.00141,9.78064-4.478,19.38819-7.40459,28.79747-2.92659,9.40928-6.30319,18.6203-10.10461,27.60788-3.80143,8.98758-8.02768,17.75172-12.6536,26.26725-4.62591,8.51553-9.65148,16.78244-15.05153,24.77557-5.40005,7.99313-11.17459,15.71247-17.29843,23.13285-6.12384,7.42038-12.59699,14.5418-19.39428,21.33909s-13.91871,13.27044-21.33909,19.39428c-7.42038,6.12384-15.13972,11.89838-23.13285,17.29843-7.99313,5.40005-16.26004,10.42562-24.77557,15.05153-8.51553,4.62591-17.27967,8.85217-26.26725,12.6536-8.98758,3.80143-18.1986,7.17802-27.60788,10.10461-9.40928,2.92659-19.01683,5.40318-28.79747,7.40459-9.78064,2.00141-19.73437,3.52764-29.83602,4.55352s-20.35121,1.5514-30.72352,1.5514-20.62187-.52553-30.72352-1.5514c-10.10165-1.02588-20.05538-2.55211-29.83602-4.55352s-19.38819-4.478-28.79747-7.40459c-9.40928-2.92659-18.6203-6.30319-27.60788-10.10461-8.98758-3.80143-17.75172-8.02768-26.26725-12.6536-8.51553-4.62591-16.78244-9.65148-24.77557-15.05153-7.99313-5.40005-15.71247-11.17459-23.13285-17.29843-7.42038-6.12384-14.5418-12.59699-21.33909-19.39428-6.79729-6.79729-13.27044-13.91871-19.39428-21.33909-6.12384-7.42038-11.89838-15.13972-17.29843-23.13285-5.40005-7.99313-10.42562-16.26004-15.05153-24.77557-4.62591-8.51553-8.85217-17.27967-12.6536-26.26725-3.80143-8.98758-7.17802-18.1986-10.10461-27.60788"/>
  <path class="cls-2" d="M131.5,375.31935c.94544-9.30955,2.35199-18.48277,4.19646-27.49648,1.84447-9.01371,4.12686-17.8679,6.82397-26.53937,2.69711-8.67147,5.80893-17.16023,9.31228-25.44306,3.50334-8.28284,7.39821-16.35975,11.66139-24.20755,4.26318-7.8478,8.89468-15.46648,13.87129-22.83284s10.29835-14.48041,15.942-21.31893c5.64365-6.83853,11.60922-13.40153,17.87351-19.66582,6.26429-6.26429,12.8273-12.22986,19.66582-17.87351,6.83853-5.64365,13.95257-10.96539,21.31893-15.942,7.36636-4.97662,14.98504-9.60811,22.83284-13.87129,7.8478-4.26318,15.92472-8.15804,24.20755-11.66139,8.28284-3.50334,16.77159-6.61517,25.44306-9.31228,8.67147-2.69711,17.52566-4.9795,26.53937-6.82397,9.01371-1.84447,18.18694-3.25103,27.49648-4.19646,9.30955-.94544,18.75541-1.42975,28.31439-1.42975s19.00485,.48432,28.31439,1.42975c9.30955,.94544,18.48277,2.35199,27.49648,4.19646,9.01371,1.84447,17.8679,4.12686,26.53937,6.82397,8.67147,2.69711,17.16023,5.80893,25.44306,9.31228,8.28284,3.50334,16.35975,7.39821,24.20755,11.66139,7.8478,4.26318,15.46648,8.89468,22.83284,13.87129,7.36636,4.97662,14.48041,10.29835,21.31893,15.942,6.83853,5.64365,13.40153,11.60922,19.66582,17.87351,6.26429,6.26429,12.22986,12.8273,17.87351,19.66582,5.64365,6.83853,10.96539,13.95257,15.942,21.31893,4.97662,7.36636,9.60811,14.98504,13.87129,22.83284,4.26318,7.8478,8.15804,15.92472,11.66139,24.20755"/>
  <path class="cls-2" d="M683.92848,403.63375c0,9.55898-.48432,19.00485-1.42975,28.31439-.94544,9.30955-2.35199,18.48277-4.19646,27.49648-1.84447,9.01371-4.12686,17.8679-6.82397,26.53937-2.69711,8.67147-5.80893,17.16023-9.31228,25.44306-3.50334,8.28284-7.39821,16.35975-11.66139,24.20755-4.26318,7.8478-8.89468,15.46648-13.87129,22.83284-4.97662,7.36636-10.29835,14.48041-15.942,21.31893-5.64365,6.83853-11.60922,13.40153-17.87351,19.66582-6.26429,6.26429-12.8273,12.22986-19.66582,17.87351-6.83853,5.64365-13.95257,10.96539-21.31893,15.942-7.36636,4.97662-14.98504,9.60811-22.83284,13.87129-7.8478,4.26318-15.92472,8.15804-24.20755,11.66139-8.28284,3.50334-16.77159,6.61517-25.44306,9.31228-8.67147,2.69711-17.52566,4.9795-26.53937,6.82397-9.01371,1.84447-18.18694,3.25103-27.49648,4.19646-9.30955,.94544-18.75541,1.42975-28.31439,1.42975s-19.00485-.48432-28.31439-1.42975c-9.30955-.94544-18.48277-2.35199-27.49648-4.19646-9.01371-1.84447-17.8679-4.12686-26.53937-6.82397-8.67147-2.69711-17.16023-5.80893-25.44306-9.31228-8.28284-3.50334-16.35975-7.39821-24.20755-11.66139-7.8478-4.26318-15.46648-8.89468-22.83284-13.87129-7.36636-4.97662-14.48041-10.29835-21.31893-15.942-6.83853-5.64365-13.40153-11.60922-19.66582-17.87351-6.26429-6.26429-12.22986-12.8273-17.87351-19.66582-5.64365-6.83853-10.96539-13.95257-15.942-21.31893-4.97662-7.36636-9.60811-14.98504-13.87129-22.83284-4.26318-7.8478-8.15804-15.92472-11.66139-24.20755-3.50334-8.28284-6.61517-16.77159-9.31228-25.44306"/>
</svg>