<?xml version="1.0" encoding="utf-8"?>
<!-- Generator: Adobe Illustrator 26.2.1, SVG Export Plug-In . SVG Version: 6.00 Build 0)  -->
<svg version="1.1" id="Layer_1" xmlns="http://www.w3.org/2000/svg" xmlns:xlink="http://www.w3.org/1999/xlink" x="0px" y="0px"
	 viewBox="0 0 347.9 136.6" style="enable-background:new 0 0 347.9 136.6;" xml:space="preserve">
<style type="text/css">
	.st0{enable-background:new    ;}
</style>
<g id="Layer_1_00000091000366798542981090000012209200517752287377_">
</g>
<g id="Layer_2_00000021805548402642275690000003366824349184133256_">
	<g id="Layer_1-2">
		<g class="st0">
			<path d="M88.7,38.4c-1.5-1.2-2.2-3.2-2-5.9c0.1-0.4,0.3-0.6,0.6-0.6h5.1c0.4,0,0.6,0.2,0.6,0.6c0,1,0.2,1.8,0.7,2.2
				s1.2,0.7,2.3,0.7c1.1,0,1.9-0.2,2.5-0.5c0.5-0.4,0.8-0.9,0.8-1.6c0-0.6-0.2-1-0.5-1.4c-0.4-0.4-1-0.7-1.9-1.1l-5.5-2.4
				c-1.6-0.7-2.8-1.5-3.5-2.5c-0.7-1-1.1-2.2-1.1-3.8c0-2.3,0.7-4,2.2-5.1c1.5-1.1,3.8-1.7,6.9-1.7c3.2,0,5.6,0.6,7.2,1.7
				c1.6,1.2,2.3,2.9,2.3,5.2c0,0.4-0.2,0.6-0.6,0.6h-5c-0.4,0-0.6-0.3-0.6-0.8c0-0.6-0.3-1.1-0.8-1.5c-0.5-0.4-1.2-0.5-2.2-0.5
				c-0.9,0-1.6,0.2-2.1,0.5c-0.4,0.3-0.7,0.8-0.7,1.5c0,0.5,0.2,0.9,0.5,1.2c0.3,0.3,0.9,0.6,1.8,1l5.5,2.3c1.7,0.7,2.9,1.5,3.6,2.5
				c0.7,1,1.1,2.3,1.1,3.9c0,2.4-0.8,4.2-2.5,5.4c-1.7,1.2-4.2,1.8-7.5,1.8C92.6,40.3,90.2,39.7,88.7,38.4z"/>
			<path d="M115.9,37.9c-1.8-1.6-2.7-3.9-2.8-7.1v-5.5c0-6.7,3.6-10,10.8-10c3.6,0,6.2,0.8,8,2.4c1.8,1.6,2.7,4,2.7,7.2v3.7
				c0,0.4-0.2,0.6-0.6,0.6h-14.3v1.4c0,1.5,0.3,2.6,1,3.3c0.7,0.7,1.7,1.1,3.2,1.1c1.2,0,2.1-0.2,2.7-0.6c0.7-0.4,1-0.9,1-1.6
				c0-0.4,0.2-0.6,0.6-0.6h5.2c0.4,0,0.6,0.2,0.6,0.6c0.1,4.9-3.3,7.3-10.2,7.3C120.4,40.3,117.7,39.5,115.9,37.9z M128.2,25.4v-0.2
				c0-1.6-0.4-2.8-1-3.5c-0.7-0.7-1.7-1.1-3.1-1.1c-1.5,0-2.6,0.4-3.3,1.1c-0.7,0.8-1,1.9-1,3.5v0.2H128.2z"/>
			<path d="M162.6,39.1c0,0.4-0.2,0.6-0.6,0.6h-4.7c-0.4,0-0.6-0.2-0.7-0.6c-0.2-1.1-0.3-2-0.4-2.9c-1.3,1.4-2.6,2.4-3.9,3.1
				s-2.7,1-4.2,1c-2,0-3.4-0.6-4.5-1.8c-1-1.2-1.6-2.8-1.6-5c0-1.7,0.3-3,1-4.1c0.6-1,1.7-1.8,3.1-2.4s3.4-1,5.8-1.2l3.7-0.4v-1.8
				c0-1.2-0.2-2.1-0.7-2.6c-0.5-0.5-1.3-0.7-2.5-0.7c-2.2,0-3.2,0.8-3.1,2.4c0,0.4-0.2,0.6-0.6,0.6h-5c-0.4,0-0.6-0.3-0.7-0.8
				c-0.2-2.3,0.6-4.1,2.2-5.4c1.7-1.3,4.2-1.9,7.5-1.9c3.3,0,5.8,0.7,7.3,2c1.5,1.4,2.3,3.5,2.3,6.5v9.7
				C162.3,35.6,162.4,37.4,162.6,39.1L162.6,39.1z M152.9,34.6c0.8-0.4,1.7-1.1,2.7-2.2v-3.3l-2.9,0.3c-1.6,0.2-2.8,0.5-3.4,1
				c-0.6,0.5-0.9,1.3-0.9,2.4c0,0.8,0.2,1.4,0.5,1.8c0.3,0.4,0.9,0.6,1.6,0.6C151.3,35.3,152.1,35,152.9,34.6z"/>
		</g>
		<g class="st0">
			<path d="M190.7,17.4c1.2,1.4,1.7,3.4,1.7,6.3v6.9c0,3.3-0.8,5.7-2.5,7.3c-1.7,1.6-4.3,2.4-7.9,2.4c-1,0-2.1-0.1-3.1-0.2
				c-1.1-0.1-2.1-0.2-3.1-0.4c-2.2-0.3-3.7-0.5-4.5-0.5V7.6c0-0.4,0.2-0.6,0.6-0.6h5.4c0.4,0,0.6,0.2,0.6,0.6v10.9
				c2.4-2,4.9-3.1,7.5-3.1C187.8,15.4,189.5,16.1,190.7,17.4z M185.7,25c0-1.3-0.2-2.3-0.7-3c-0.5-0.6-1.2-0.9-2.2-0.9
				c-0.7,0-1.4,0.2-2.2,0.5c-0.8,0.4-1.6,0.9-2.7,1.7v11c1.5,0.3,2.6,0.4,3.5,0.4c1.5,0,2.6-0.4,3.3-1.2c0.7-0.8,1.1-2,1.1-3.6V25z"
				/>
		</g>
		<g class="st0">
			<path d="M216,21.8c0,0.5-0.3,0.7-0.7,0.6c-0.6-0.1-1.2-0.2-1.7-0.2c-1.1,0-2.1,0.3-3.2,0.8c-1.1,0.5-2.1,1.3-2.9,2.3v13.9
				c0,0.4-0.2,0.6-0.6,0.6h-5.4c-0.4,0-0.6-0.2-0.6-0.6V22c0-1.9-0.1-3.7-0.3-5.4v-0.1c0-0.4,0.2-0.6,0.6-0.6h4.8
				c0.4,0,0.6,0.2,0.7,0.5c0.2,1,0.3,2.1,0.4,3.3c1-1.3,2.2-2.4,3.5-3.2c1.3-0.8,2.6-1.2,3.9-1.2c0.6,0,1.1,0.1,1.4,0.2
				c0.3,0.1,0.5,0.3,0.5,0.7C216.3,18.1,216.2,20,216,21.8z"/>
		</g>
		<g class="st0">
			<path d="M225.1,37.9c-1.8-1.6-2.7-3.9-2.8-7.1v-5.5c0-6.7,3.6-10,10.8-10c3.6,0,6.2,0.8,8,2.4c1.8,1.6,2.7,4,2.7,7.2v3.7
				c0,0.4-0.2,0.6-0.6,0.6H229v1.4c0,1.5,0.3,2.6,1,3.3c0.7,0.7,1.7,1.1,3.2,1.1c1.2,0,2.1-0.2,2.7-0.6c0.7-0.4,1-0.9,1-1.6
				c0-0.4,0.2-0.6,0.6-0.6h5.2c0.4,0,0.6,0.2,0.6,0.6c0.1,4.9-3.3,7.3-10.2,7.3C229.6,40.3,226.9,39.5,225.1,37.9z M237.4,25.4v-0.2
				c0-1.6-0.4-2.8-1-3.5c-0.7-0.7-1.7-1.1-3.1-1.1c-1.5,0-2.6,0.4-3.3,1.1c-0.7,0.8-1,1.9-1,3.5v0.2H237.4z"/>
		</g>
		<g class="st0">
			<path d="M254.6,37.9c-1.8-1.6-2.7-3.9-2.8-7.1v-5.5c0-6.7,3.6-10,10.8-10c3.6,0,6.2,0.8,8,2.4c1.8,1.6,2.7,4,2.7,7.2v3.7
				c0,0.4-0.2,0.6-0.6,0.6h-14.3v1.4c0,1.5,0.3,2.6,1,3.3c0.7,0.7,1.7,1.1,3.2,1.1c1.2,0,2.1-0.2,2.7-0.6c0.7-0.4,1-0.9,1-1.6
				c0-0.4,0.2-0.6,0.6-0.6h5.2c0.4,0,0.6,0.2,0.6,0.6c0.1,4.9-3.3,7.3-10.2,7.3C259.1,40.3,256.3,39.5,254.6,37.9z M266.8,25.4v-0.2
				c0-1.6-0.4-2.8-1-3.5c-0.7-0.7-1.7-1.1-3.1-1.1c-1.5,0-2.6,0.4-3.3,1.1c-0.7,0.8-1,1.9-1,3.5v0.2H266.8z"/>
		</g>
		<g class="st0">
			<path d="M280,39.6c-0.1-0.1-0.2-0.2-0.2-0.4V39c0-0.3,0.1-0.6,0.2-0.8l8.4-12.3c1.1-1.8,2.1-3.2,3-4.3v-0.1c-1.1,0-2.8,0-4.9,0
				h-4.8c-0.2,0-0.3-0.1-0.4-0.2c-0.1-0.1-0.2-0.3-0.2-0.5v-4.2c0-0.2,0.1-0.3,0.2-0.5c0.1-0.1,0.2-0.2,0.4-0.2h19
				c0.4,0,0.7,0.2,0.7,0.6v0.1c0,0.3-0.2,0.7-0.5,1.2l-7.8,11.5c-1.6,2.3-2.7,3.9-3.3,4.7v0.1c1.2,0,2.9,0,4.9,0h5.2
				c0.4,0,0.6,0.2,0.6,0.6v4.3c0,0.4-0.2,0.6-0.6,0.6h-19.3C280.2,39.7,280.1,39.7,280,39.6z"/>
		</g>
		<g class="st0">
			<path d="M310.2,37.9c-1.8-1.6-2.7-3.9-2.8-7.1v-5.5c0-6.7,3.6-10,10.8-10c3.6,0,6.2,0.8,8,2.4c1.8,1.6,2.7,4,2.7,7.2v3.7
				c0,0.4-0.2,0.6-0.6,0.6h-14.3v1.4c0,1.5,0.3,2.6,1,3.3c0.7,0.7,1.7,1.1,3.2,1.1c1.2,0,2.1-0.2,2.7-0.6s1-0.9,1-1.6
				c0-0.4,0.2-0.6,0.6-0.6h5.2c0.4,0,0.6,0.2,0.6,0.6c0.1,4.9-3.3,7.3-10.2,7.3C314.7,40.3,312,39.5,310.2,37.9z M322.5,25.4v-0.2
				c0-1.6-0.4-2.8-1-3.5s-1.7-1.1-3.1-1.1c-1.5,0-2.6,0.4-3.3,1.1c-0.7,0.8-1,1.9-1,3.5v0.2H322.5z"/>
		</g>
		<g class="st0">
			<path d="M120,58.7l-7.2,22.5c-0.1,0.4-0.4,0.5-0.7,0.5h-5.9c-0.4,0-0.6-0.2-0.7-0.5l-1.1-3.6c-0.4-1.4-0.8-3-1.2-4.8
				c-0.1-0.4-0.2-0.8-0.3-1.4h-0.1c-0.3,1.4-0.9,3.4-1.6,6.2l-1.1,3.6c-0.1,0.4-0.3,0.5-0.7,0.5h-5.9c-0.4,0-0.6-0.2-0.7-0.5
				l-7.1-22.5c0-0.1,0-0.2,0-0.3c0-0.1,0-0.2,0.1-0.3C85.9,58,86,58,86.2,58H92c0.4,0,0.6,0.2,0.7,0.6l2.6,10.7
				c0.4,1.5,0.8,3.6,1.3,6.3h0.1c0.8-2.7,1.3-4.7,1.7-6l1.6-5.7l-1.1-4.6l0-0.2c0-0.3,0.2-0.5,0.6-0.5h5c0.4,0,0.6,0.2,0.7,0.5
				l2.4,10.3c0.6,2.8,1,4.8,1.3,6.2h0.1c0.4-2.2,0.8-4.3,1.3-6.4l2.6-10.6c0.1-0.4,0.3-0.6,0.7-0.6h5.8C119.9,58,120,58.2,120,58.7z
				"/>
		</g>
		<g class="st0">
			<path d="M146,81.1c0,0.4-0.2,0.6-0.6,0.6h-4.7c-0.4,0-0.6-0.2-0.7-0.6c-0.2-1.1-0.3-2-0.4-2.9c-1.3,1.4-2.6,2.4-3.9,3.1
				s-2.7,1-4.2,1c-2,0-3.4-0.6-4.5-1.8c-1-1.2-1.6-2.8-1.6-5c0-1.7,0.3-3,1-4.1c0.6-1,1.7-1.8,3.1-2.4c1.4-0.6,3.4-1,5.8-1.2
				l3.7-0.4v-1.8c0-1.2-0.2-2.1-0.7-2.6c-0.5-0.5-1.3-0.7-2.5-0.7c-2.2,0-3.2,0.8-3.1,2.4c0,0.4-0.2,0.6-0.6,0.6h-5
				c-0.4,0-0.6-0.3-0.7-0.8c-0.2-2.3,0.6-4.1,2.2-5.4c1.7-1.3,4.2-1.9,7.5-1.9c3.3,0,5.8,0.7,7.3,2c1.5,1.4,2.3,3.5,2.3,6.5v9.7
				C145.7,77.6,145.8,79.4,146,81.1L146,81.1z M136.3,76.6c0.8-0.4,1.7-1.1,2.7-2.2v-3.3l-2.9,0.3c-1.6,0.2-2.8,0.5-3.4,1
				c-0.6,0.5-0.9,1.3-0.9,2.4c0,0.8,0.2,1.4,0.5,1.8c0.3,0.4,0.9,0.6,1.6,0.6C134.8,77.3,135.6,77,136.3,76.6z"/>
		</g>
		<g class="st0">
			<path d="M158.5,80.3c-1.2-1.3-1.8-3.5-1.8-6.6V63.5h-3.5c-0.2,0-0.3-0.1-0.4-0.2c-0.1-0.1-0.2-0.3-0.2-0.5v-4.3
				c0-0.2,0.1-0.3,0.2-0.5c0.1-0.1,0.3-0.2,0.4-0.2h3.6l0.7-5.7c0.1-0.4,0.3-0.6,0.7-0.6h4.5c0.4,0,0.6,0.2,0.6,0.6V58h7
				c0.2,0,0.3,0.1,0.4,0.2c0.1,0.1,0.2,0.3,0.2,0.5v4.3c0,0.2-0.1,0.3-0.2,0.5c-0.1,0.1-0.3,0.2-0.4,0.2h-7v9.7c0,1.2,0.2,2,0.7,2.6
				c0.5,0.5,1.3,0.8,2.4,0.8c1.4,0,2.7-0.3,3.9-0.8c0.1,0,0.2,0,0.3,0c0.3,0,0.4,0.2,0.4,0.5v4.4c0,0.3-0.2,0.6-0.5,0.7
				c-1.7,0.6-3.6,1-5.7,1C161.8,82.3,159.7,81.6,158.5,80.3z"/>
		</g>
		<g class="st0">
			<path d="M180.6,79.9c-1.8-1.6-2.7-3.9-2.8-7.1v-5.5c0-6.7,3.6-10,10.8-10c3.6,0,6.2,0.8,8,2.4c1.8,1.6,2.7,4,2.7,7.2v3.7
				c0,0.4-0.2,0.6-0.6,0.6h-14.3v1.4c0,1.5,0.3,2.6,1,3.3c0.7,0.7,1.7,1.1,3.2,1.1c1.2,0,2.1-0.2,2.7-0.6s1-0.9,1-1.6
				c0-0.4,0.2-0.6,0.6-0.6h5.2c0.4,0,0.6,0.2,0.6,0.6c0.1,4.9-3.3,7.3-10.2,7.3C185.1,82.3,182.4,81.5,180.6,79.9z M192.9,67.4v-0.2
				c0-1.6-0.4-2.8-1-3.5c-0.7-0.7-1.7-1.1-3.1-1.1c-1.5,0-2.6,0.4-3.3,1.1c-0.7,0.8-1,1.9-1,3.5v0.2H192.9z"/>
			<path d="M223.1,63.8c0,0.5-0.3,0.7-0.7,0.6c-0.6-0.1-1.2-0.2-1.7-0.2c-1.1,0-2.1,0.3-3.2,0.8c-1.1,0.5-2.1,1.3-2.9,2.3v13.9
				c0,0.4-0.2,0.6-0.6,0.6h-5.4c-0.4,0-0.6-0.2-0.6-0.6V64c0-1.9-0.1-3.7-0.3-5.4v-0.1c0-0.4,0.2-0.6,0.6-0.6h4.8
				c0.4,0,0.6,0.2,0.7,0.5c0.2,1,0.3,2.1,0.4,3.3c1-1.3,2.2-2.4,3.5-3.2c1.3-0.8,2.6-1.2,3.9-1.2c0.6,0,1.1,0.1,1.4,0.2
				c0.3,0.1,0.5,0.3,0.5,0.7C223.3,60.1,223.3,62,223.1,63.8z"/>
		</g>
		<g class="st0">
			<path d="M88.7,122.4c-1.5-1.2-2.2-3.2-2-5.9c0.1-0.4,0.3-0.6,0.6-0.6h5.1c0.4,0,0.6,0.2,0.6,0.6c0,1,0.2,1.8,0.7,2.2
				s1.2,0.7,2.3,0.7c1.1,0,1.9-0.2,2.5-0.5c0.5-0.4,0.8-0.9,0.8-1.6c0-0.6-0.2-1-0.5-1.4c-0.4-0.4-1-0.7-1.9-1.1l-5.5-2.4
				c-1.6-0.7-2.8-1.5-3.5-2.5c-0.7-1-1.1-2.2-1.1-3.8c0-2.3,0.7-4,2.2-5.1c1.5-1.1,3.8-1.7,6.9-1.7c3.2,0,5.6,0.6,7.2,1.7
				c1.6,1.2,2.3,2.9,2.3,5.2c0,0.4-0.2,0.6-0.6,0.6h-5c-0.4,0-0.6-0.3-0.6-0.8c0-0.6-0.3-1.1-0.8-1.5c-0.5-0.4-1.2-0.5-2.2-0.5
				c-0.9,0-1.6,0.2-2.1,0.5c-0.4,0.3-0.7,0.8-0.7,1.5c0,0.5,0.2,0.9,0.5,1.2c0.3,0.3,0.9,0.6,1.8,1l5.5,2.3c1.7,0.7,2.9,1.5,3.6,2.5
				c0.7,1,1.1,2.3,1.1,3.9c0,2.4-0.8,4.2-2.5,5.4c-1.7,1.2-4.2,1.8-7.5,1.8C92.6,124.3,90.2,123.7,88.7,122.4z"/>
			<path d="M136.1,123.3c0,0.3-0.2,0.4-0.5,0.4h-6.4c-0.3,0-0.6-0.1-0.8-0.4l-5.6-8.9l-2.4,2.6v6c0,0.4-0.2,0.6-0.6,0.6h-5.4
				c-0.4,0-0.6-0.2-0.6-0.6V91.6c0-0.4,0.2-0.6,0.6-0.6h5.4c0.4,0,0.6,0.2,0.6,0.6v11.3c0,2.2,0,4.4-0.1,6.6h0.1
				c1.1-1.7,2.2-3.1,3.2-4.4l3.9-4.8c0.2-0.2,0.4-0.3,0.7-0.3h6.8c0.4,0,0.5,0.1,0.5,0.3c0,0.2-0.1,0.3-0.2,0.4l-8,9.2L136,123
				C136.1,123.1,136.1,123.2,136.1,123.3z"/>
			<path d="M143.6,95.8c-0.6-0.5-1-1.3-1-2.3v-1.2c0-1,0.3-1.8,0.9-2.3c0.6-0.5,1.5-0.8,2.7-0.8c1.2,0,2,0.3,2.7,0.8
				c0.6,0.5,0.9,1.3,0.9,2.3v1.2c0,1-0.3,1.8-0.9,2.3s-1.5,0.8-2.7,0.8C145.1,96.6,144.3,96.3,143.6,95.8z M142.9,123.1v-22.5
				c0-0.4,0.2-0.6,0.6-0.6h5.4c0.4,0,0.6,0.2,0.6,0.6v22.5c0,0.4-0.2,0.6-0.6,0.6h-5.4C143.1,123.7,142.9,123.5,142.9,123.1z"/>
			<path d="M158.5,123.1V91.6c0-0.4,0.2-0.6,0.6-0.6h5.4c0.4,0,0.6,0.2,0.6,0.6v31.5c0,0.4-0.2,0.6-0.6,0.6h-5.4
				C158.8,123.7,158.5,123.5,158.5,123.1z"/>
			<path d="M174.2,123.1V91.6c0-0.4,0.2-0.6,0.6-0.6h5.4c0.4,0,0.6,0.2,0.6,0.6v31.5c0,0.4-0.2,0.6-0.6,0.6h-5.4
				C174.4,123.7,174.2,123.5,174.2,123.1z"/>
			<path d="M191.2,122.4c-1.5-1.2-2.2-3.2-2-5.9c0.1-0.4,0.3-0.6,0.6-0.6h5.1c0.4,0,0.6,0.2,0.6,0.6c0,1,0.2,1.8,0.7,2.2
				s1.2,0.7,2.3,0.7c1.1,0,1.9-0.2,2.5-0.5c0.5-0.4,0.8-0.9,0.8-1.6c0-0.6-0.2-1-0.5-1.4c-0.4-0.4-1-0.7-1.9-1.1l-5.5-2.4
				c-1.6-0.7-2.8-1.5-3.5-2.5c-0.7-1-1.1-2.2-1.1-3.8c0-2.3,0.7-4,2.2-5.1c1.5-1.1,3.8-1.7,6.9-1.7c3.2,0,5.6,0.6,7.2,1.7
				c1.6,1.2,2.3,2.9,2.3,5.2c0,0.4-0.2,0.6-0.6,0.6h-5c-0.4,0-0.6-0.3-0.6-0.8c0-0.6-0.3-1.1-0.8-1.5c-0.5-0.4-1.2-0.5-2.2-0.5
				c-0.9,0-1.6,0.2-2.1,0.5c-0.4,0.3-0.7,0.8-0.7,1.5c0,0.5,0.2,0.9,0.5,1.2s0.9,0.6,1.8,1l5.5,2.3c1.7,0.7,2.9,1.5,3.6,2.5
				c0.7,1,1.1,2.3,1.1,3.9c0,2.4-0.8,4.2-2.5,5.4c-1.7,1.2-4.2,1.8-7.5,1.8C195.1,124.3,192.7,123.7,191.2,122.4z"/>
		</g>
		<path d="M64.3,87.2c0,0,0,1.9,0.1,3.2c0,1.4,0.1,3.5-1.2,5.8c-1.3,2.3-2.4,7-3,15.1c-0.6,8.1,1.2,11,1.7,11.5s1.7,0.7,4.3,0.7
			c2.6,0,3.8-0.2,4.3-0.7s2.2-3.5,1.5-11.5c-0.8-8-2-12.8-3.4-15c-1.4-2.2-1.3-4.4-1.3-5.8c0-1.4-0.1-3.2-0.1-3.2l-0.4-34.3
			c0,0,0-1.9-0.1-3.2c0-1.4-0.1-3.5,1.2-5.8c1.3-2.3,2.4-7,3-15.1c0.6-8.1-1.1-11-1.7-11.5c-0.5-0.5-1.7-0.7-4.3-0.7
			c-2.6,0-3.8,0.2-4.3,0.7s-2.2,3.5-1.5,11.5c0.8,8,2,12.8,3.4,15c1.4,2.2,1.3,4.4,1.3,5.8c0,1.4,0.1,3.2,0.1,3.2L64.3,87.2
			L64.3,87.2z"/>
		<path d="M0,62.8c0-0.5,0.3-0.9,0.7-0.9c2.6,0,5-1.5,6.7-4l0.1-0.1h0l0,0l0.1-0.1h0.1l0.1,0h0.4l0.1,0h0.1l0.1,0.1l0,0l0.1,0.1
			c0,0,0,0.1,0.1,0.1c1.6,2.5,4.1,4,6.6,4s5-1.5,6.6-4h0l0-0.1l0.1-0.1l0,0l0.1-0.1h0.1l0.1,0h0.5l0.1,0l0.1,0.1l0,0l0.1,0.1
			c1.6,2.5,4.1,4,6.7,4c2.6,0,5-1.5,6.7-4l0.1-0.1l0.1-0.1l0,0l0.1-0.1h0.1l0.1,0h0.5l0.1,0l0.1,0.1l0.1,0.1c1.6,2.5,4.1,4,6.7,4
			c2.6,0,5-1.5,6.7-4l0-0.1c0,0,0,0,0.1-0.1h0c0,0,0-0.1,0.1-0.1l0.1,0l0.1,0h0.4l0.1,0l0.1,0l0.1,0.1h0l0.1,0.1l0,0.1h0
			c1.6,2.5,4.1,4,6.6,4s5-1.5,6.6-4h0l0-0.1l0.1-0.1l0,0l0.1-0.1h0.1l0.1,0H66l0.1,0l0.1,0.1l0,0l0.1,0.1c1.6,2.5,4.1,4,6.7,4
			c0.2,0,0.4,0.1,0.5,0.3c0.1,0.2,0.2,0.4,0.2,0.7c0,0.5-0.3,0.9-0.7,0.9c-2.7,0-5.3-1.4-7.2-3.9c-1.9,2.5-4.5,3.9-7.2,3.9
			s-5.3-1.4-7.2-3.9c-1.9,2.5-4.5,3.9-7.2,3.9c-2.7,0-5.3-1.4-7.2-3.9c-1.9,2.5-4.5,3.9-7.2,3.9c-2.7,0-5.3-1.4-7.2-3.9
			c-1.9,2.5-4.5,3.9-7.2,3.9S9.8,62.4,8,59.9c-1.9,2.5-4.5,3.9-7.2,3.9C0.3,63.7,0,63.3,0,62.8L0,62.8L0,62.8z M0.7,72.4
			c2.7,0,5.3-1.4,7.2-3.9c1.9,2.5,4.5,3.9,7.2,3.9s5.3-1.4,7.2-3.9c1.9,2.5,4.5,3.9,7.2,3.9c2.7,0,5.3-1.4,7.2-3.9
			c1.9,2.5,4.5,3.9,7.2,3.9c2.7,0,5.3-1.4,7.2-3.9c1.9,2.5,4.5,3.9,7.2,3.9s5.3-1.4,7.2-3.9c1.9,2.5,4.5,3.9,7.2,3.9
			c0.2,0,0.4-0.1,0.5-0.3s0.2-0.4,0.2-0.7c0-0.5-0.3-0.9-0.7-0.9c-2.6,0-5-1.5-6.7-4l-0.1-0.1l0-0.1l0,0l-0.1-0.1l-0.1,0l-0.1,0
			h-0.4l-0.1,0l-0.1,0l-0.1,0.1h0l-0.1,0.1h0c-1.6,2.5-4.1,4-6.7,4c-2.6,0-5-1.5-6.6-4h0l0-0.1l-0.1-0.1l0,0l-0.1-0.1h-0.1l-0.1,0
			h-0.4l-0.1,0H51l-0.1,0.1l0,0l-0.1,0.1c-1.6,2.5-4.1,4-6.7,4c-2.6,0-5-1.5-6.7-4l-0.1-0.1l0-0.1l0,0l-0.1-0.1l-0.1,0h-0.4l-0.1,0
			l-0.1,0l-0.1,0.1c0,0,0,0,0,0l-0.1,0.1l-0.1,0.1c-1.6,2.5-4.1,4-6.7,4c-2.6,0-5-1.5-6.7-4l-0.1-0.1l0-0.1l0,0l-0.1-0.1l-0.1,0
			l-0.1,0h-0.4l-0.1,0l-0.1,0L22,66.4h0l-0.1,0.1h0c-1.6,2.5-4.1,4-6.6,4s-5-1.5-6.6-4l-0.1-0.1l-0.1-0.1c0,0,0,0,0,0l-0.1-0.1
			l-0.1,0H7.8l-0.1,0l-0.1,0l-0.1,0.1c0,0,0,0,0,0h0l0,0.1l-0.1,0.1c-1.6,2.5-4.1,4-6.7,4C0.3,70.6,0,71,0,71.5
			C0,72,0.3,72.4,0.7,72.4L0.7,72.4L0.7,72.4z M0.7,81.1c2.7,0,5.3-1.4,7.2-3.9c1.9,2.5,4.5,3.9,7.2,3.9s5.3-1.4,7.2-3.9
			c1.9,2.5,4.5,3.9,7.2,3.9c2.7,0,5.3-1.4,7.2-3.9c1.9,2.5,4.5,3.9,7.2,3.9c2.7,0,5.3-1.4,7.2-3.9c1.9,2.5,4.5,3.9,7.2,3.9
			s5.3-1.4,7.2-3.9c1.9,2.5,4.5,3.9,7.2,3.9c0.4,0,0.7-0.4,0.7-0.9c0-0.2-0.1-0.5-0.2-0.7s-0.3-0.3-0.5-0.3c-2.6,0-5-1.5-6.7-4
			l-0.1-0.1l0,0L66.1,75L66,75h-0.5l-0.1,0h-0.1l-0.1,0.1l0,0l-0.1,0.1l0,0.1h0c-1.6,2.5-4.1,4-6.6,4s-5-1.5-6.6-4h0l0-0.1
			c0,0,0-0.1-0.1-0.1h0c0,0,0-0.1-0.1-0.1l-0.1,0l-0.1,0h-0.4L51,75L51,75l-0.1,0.1h0c0,0,0,0.1-0.1,0.1l0,0.1c-1.6,2.5-4.1,4-6.7,4
			c-2.6,0-5-1.5-6.7-4l-0.1-0.1L37.2,75l-0.1,0h-0.5l-0.1,0h-0.1l-0.1,0.1c0,0,0,0,0,0l-0.1,0.1l-0.1,0.1c-1.6,2.5-4.1,4-6.7,4
			c-2.6,0-5-1.5-6.7-4c0,0,0-0.1-0.1-0.1l0-0.1l0,0L22.8,75l-0.1,0h-0.5l-0.1,0h-0.1L22,75.1l0,0l-0.1,0.1l0,0.1h0
			c-1.6,2.5-4.1,4-6.6,4s-5-1.5-6.6-4l-0.1-0.1l-0.1-0.1c0,0,0,0,0,0L8.3,75H8.2l-0.1,0H7.7l-0.1,0l-0.1,0.1c0,0,0,0,0,0h0l-0.1,0.1
			c-1.6,2.5-4.1,4-6.7,4c-0.4,0-0.7,0.4-0.7,0.9C0,80.7,0.3,81.1,0.7,81.1L0.7,81.1L0.7,81.1z"/>
	</g>
</g>
</svg>
