<?xml version="1.0" encoding="UTF-8"?>
<svg xmlns="http://www.w3.org/2000/svg" width="347.85352" height="136.58398" viewBox="0 0 347.85352 136.58398">
  <defs>
    <style>
      .cls-1 {
        font-family: SofiaSans-ExtraBold, SofiaSans;
        font-size: 48px;
      }

      .cls-2 {
        letter-spacing: .07402em;
      }

      .cls-3 {
        letter-spacing: .075em;
      }

      .cls-4 {
        letter-spacing: .073em;
      }

      .cls-5 {
        letter-spacing: .071em;
      }

      .cls-6 {
        letter-spacing: .06em;
      }

      .cls-7 {
        letter-spacing: .077em;
      }

      .cls-8 {
        letter-spacing: .06701em;
      }
    </style>
  </defs>
  <g id="Layer_1" data-name="Layer 1"/>
  <g id="Layer_2" data-name="Layer 2">
    <g id="Layer_1-2" data-name="Layer 1">
      <text class="cls-1" transform="translate(84.67334 39.71973)"><tspan class="cls-3" x="0" y="0">sea</tspan><tspan class="cls-4" x="83.90234" y="0">b</tspan><tspan class="cls-2" x="113.42188" y="0">r</tspan><tspan class="cls-7" x="135.55029" y="0">e</tspan><tspan class="cls-3" x="165.02148" y="0">e</tspan><tspan class="cls-8" x="194.39697" y="0">z</tspan><tspan class="cls-3" x="220.65283" y="0">e </tspan><tspan class="cls-6" x="0" y="42">w</tspan><tspan class="cls-3" x="39.21533" y="42">a</tspan><tspan class="cls-5" x="67.34277" y="42">t</tspan><tspan class="cls-3" x="91.10254" y="42">er </tspan><tspan class="cls-3"><tspan x="0" y="84">skills</tspan></tspan></text>
      <path d="M64.31088,87.16061s0,1.86199,.06306,3.16637c0,1.36744,.12364,3.47422-1.18075,5.77266-1.30191,2.29594-2.42207,7.01399-3.04299,15.08284-.62092,8.06886,1.18075,10.98523,1.67802,11.4825s1.67528,.68125,4.28158,.68372c2.60877,0,3.84761-.24976,4.34464-.74678s2.23538-3.4767,1.4886-11.54532c-.80736-8.00804-1.98538-12.78391-3.35319-15.01966-1.36495-2.23291-1.30438-4.4077-1.3019-5.77266,0-1.36744-.06306-3.16637-.06306-3.16637l-.37054-34.25995s0-1.86199-.06306-3.16637c0-1.36744-.12363-3.47422,1.18075-5.77266,1.30191-2.29594,2.42207-7.01398,3.04298-15.08284,.62091-8.06886-1.11769-11.04829-1.67802-11.4825-.49701-.49701-1.67528-.68125-4.28158-.68372-2.60877,0-3.84761,.24975-4.34464,.74678s-2.23538,3.4767-1.4886,11.54532c.80736,8.00803,1.98537,12.78391,3.35319,15.01966,1.36495,2.23291,1.30438,4.4077,1.3019,5.77266,0,1.36744,.06306,3.16637,.06306,3.16637l.37055,34.25996Z"/>
      <path d="M.00014,62.83747c0-.50786,.3273-.92004,.73058-.92004,2.58916,.00368,5.03812-1.47206,6.66288-4.01136l.10228-.12881h.01461l.02922-.0368,.08767-.0736h.05845l.07306-.0368h.40913l.07306,.0368h.05845l.08767,.0736,.02922,.0368,.05845,.0552c.01461,.0368,.04383,.0552,.05845,.0736,1.619,2.53562,4.06497,4.00768,6.64829,4.00768s5.02936-1.47206,6.64829-4.00768h.01461l.04383-.0736,.05845-.0552,.02922-.0368,.08767-.0736h.05845l.07306-.0368h.48218l.07306,.0368,.07306,.0736,.04383,.0368,.10228,.12881c1.62192,2.53562,4.0708,4.01136,6.65704,4.01136,2.58332,0,5.03228-1.47573,6.65413-4.01136l.05845-.0736,.05845-.0552,.02922-.0368,.08767-.0736h.05845l.07306-.0368h.48218l.05845,.0368,.1315,.11041,.10228,.12881c1.62192,2.53562,4.0708,4.01136,6.65704,4.01136,2.58332,0,5.03228-1.47573,6.65413-4.01136l.04383-.0736c.0263-.01472,.04676-.04048,.05845-.0736h.04383c.01753-.03312,.04383-.05888,.07306-.0736l.05845-.0368,.07306-.0368h.42374l.07306,.0368,.05845,.0368,.08767,.0736h.02922l.05845,.0736,.04383,.0736h.01461c1.619,2.53562,4.06497,4.00768,6.64829,4.00768s5.02937-1.47206,6.64829-4.00768h.01461l.04383-.0736,.05845-.0552,.02922-.0368,.08767-.0736h.05845l.07306-.0368h.48218l.07306,.0368,.07306,.0736,.04383,.0368,.10228,.12881c1.62483,2.5393,4.07372,4.01503,6.66288,4.01136,.19287,0,.3799,.09568,.51725,.26865,.13735,.17296,.21333,.40849,.21333,.65139-.00877,.50418-.33022,.90899-.73058,.92004-2.72943,.00368-5.342-1.39848-7.23279-3.88257-1.88488,2.48041-4.49162,3.88257-7.21813,3.88257s-5.33325-1.40216-7.21813-3.88257c-1.8878,2.48041-4.49745,3.88257-7.22696,3.88257-2.72651,0-5.33617-1.40216-7.22397-3.88257-1.8878,2.48041-4.49745,3.88257-7.22696,3.88257-2.72651,0-5.33617-1.40216-7.22397-3.88257-1.88488,2.48041-4.49162,3.88257-7.21813,3.88257s-5.33325-1.40216-7.21813-3.88257c-1.89072,2.48409-4.50329,3.88624-7.23279,3.88257-.40036-.01104-.72181-.41586-.73058-.92004H.00014Zm.73058,9.58576c2.73235,.01104,5.34784-1.39113,7.23279-3.88257,1.88488,2.48041,4.49162,3.88257,7.21813,3.88257s5.33325-1.40216,7.21813-3.88257c1.8878,2.48041,4.49745,3.88257,7.22696,3.88257,2.72651,0,5.33617-1.40216,7.22397-3.88257,1.8878,2.48041,4.49745,3.88257,7.22397,3.88257,2.72943,0,5.33909-1.40216,7.22696-3.88257,1.88488,2.48041,4.49162,3.88257,7.21813,3.88257s5.33325-1.40216,7.21813-3.88257c1.88488,2.49144,4.50037,3.89359,7.23279,3.88257,.19287,0,.3799-.09568,.51725-.26865s.21333-.40849,.21333-.65139c-.00877-.50418-.33022-.90899-.73058-.92004-2.58624,.01104-5.03812-1.45737-6.66288-3.99299l-.05845-.0552-.04383-.0736-.04383-.0368-.07306-.0552-.07306-.0368-.05845-.0368h-.42374l-.07306,.0368-.05845,.0368-.08767,.0736h-.02922l-.10228,.12881h-.01461c-1.62483,2.52827-4.0708,3.99299-6.65121,3.98931-2.58332-.00368-5.02345-1.47573-6.64537-4.00768h-.01461l-.04383-.0736-.05845-.0552-.04383-.0368-.07306-.0736h-.05845l-.07306-.0368h-.42374l-.07306,.0368h-.05845l-.07306,.0736-.04383,.0368-.10228,.12881c-1.62483,2.53195-4.06789,4.00401-6.65121,4.00768-2.58624,.00368-5.03228-1.46104-6.65996-3.98931l-.05845-.0552-.04383-.0736-.04383-.0368-.14611-.092-.07306-.0368h-.40913l-.07306,.0368-.05845,.0368-.08767,.0736c-.01461,0-.02922,0-.02922,.0184l-.05845,.0736-.05845,.0552c-1.62775,2.5246-4.07372,3.98931-6.65413,3.98931-2.58332,0-5.02936-1.46471-6.65704-3.98931l-.05845-.0552-.04383-.0736-.04383-.0368-.07306-.0552-.07306-.0368-.05845-.0368h-.42374l-.07306,.0368-.05845,.0368-.08767,.0736h-.02922l-.10228,.12881h-.01461c-1.62483,2.52092-4.06789,3.98931-6.64829,3.98931s-5.02345-1.46839-6.64829-3.98931l-.05845-.0552-.05845-.0736c0-.0184-.01461-.0184-.02922-.0368l-.14611-.092-.07306-.0368h-.40913l-.07306,.0368-.05845,.0368-.08767,.0736c-.01461,0-.02922,0-.02922,.0184h-.01461l-.04383,.0736-.05845,.0552c-1.619,2.54664-4.0708,4.02973-6.66288,4.02973-.40036,.01104-.72181,.41586-.73058,.92004,0,.50786,.3273,.92004,.73058,.92004l-.00015,.00007Zm0,8.68416c2.72943,.00368,5.342-1.39848,7.23279-3.88257,1.88488,2.48041,4.49162,3.88257,7.21813,3.88257s5.33325-1.40215,7.21813-3.88257c1.8878,2.48041,4.49745,3.88257,7.22696,3.88257,2.72651,0,5.33617-1.40215,7.22397-3.88257,1.8878,2.48041,4.49745,3.88257,7.22397,3.88257,2.72943,0,5.33909-1.40215,7.22696-3.88257,1.88488,2.48041,4.49162,3.88257,7.21813,3.88257s5.33325-1.40215,7.21813-3.88257c1.89071,2.48409,4.50329,3.88624,7.23279,3.88257,.40036-.01104,.72182-.41586,.73058-.92004,0-.24289-.07598-.47842-.21333-.65139s-.32438-.26865-.51725-.26865c-2.58916,.00368-5.03812-1.47206-6.66288-4.01136l-.10228-.12881-.04383-.0368-.07306-.0736-.07306-.0368h-.48218l-.07306,.0368h-.05845l-.08767,.0736-.02922,.0368-.05845,.0552-.04383,.0736h-.01461c-1.619,2.53562-4.06497,4.00768-6.64829,4.00768s-5.02937-1.47206-6.64829-4.00768h-.01461l-.04383-.0736c-.02922-.0184-.04383-.0552-.05845-.0736h-.04383c-.01753-.03312-.04383-.05888-.07306-.0736l-.05845-.0368-.07306-.0368h-.42374l-.05845,.0368-.07306,.0368-.07306,.0736h-.04383c-.01169,.03312-.03215,.05888-.05845,.0736l-.04383,.0736c-1.62192,2.53562-4.0708,4.01136-6.65704,4.01136-2.58332,0-5.03228-1.47573-6.65413-4.01136l-.10228-.12881-.1315-.11041-.05845-.0368h-.48218l-.07306,.0368h-.05845l-.08767,.0736c-.01461,.0184-.02922,.0184-.02922,.0368l-.05845,.0552-.05845,.0736c-1.62192,2.53562-4.0708,4.01136-6.65704,4.01136-2.58332,0-5.03228-1.47573-6.65413-4.01136-.01461-.0184-.02922-.0552-.05845-.0736l-.04383-.0552-.04383-.0368-.07306-.0736-.07306-.0368h-.48218l-.07306,.0368h-.05845l-.08767,.0736-.02922,.0368-.05845,.0552-.04383,.0736h-.01461c-1.619,2.53562-4.06497,4.00768-6.64829,4.00768s-5.02936-1.47206-6.64829-4.00768l-.05845-.0736-.05845-.0552c0-.0184-.01461-.0184-.02922-.0368l-.08767-.0736h-.05845l-.07306-.0368h-.48218l-.05845,.0368-.08767,.0736c-.01461,.0184-.02922,.0184-.02922,.0368h-.01461l-.10228,.12881c-1.62483,2.5393-4.07372,4.01503-6.66288,4.01136C.32759,79.26733,.00029,79.67951,.00029,80.18737c.00877,.50418,.33023,.909,.73058,.92004h-.00015Z"/>
    </g>
  </g>
</svg>